<svg version="1.1" xmlns="http://www.w3.org/2000/svg" xmlns:xlink="http://www.w3.org/1999/xlink" width="128px" height="128px" viewBox="0,0,256,256"><g fill="none" fill-rule="nonzero" stroke="none" stroke-width="1" stroke-linecap="butt" stroke-linejoin="miter" stroke-miterlimit="10" stroke-dasharray="" stroke-dashoffset="0" font-family="none" font-weight="none" font-size="none" text-anchor="none" style="mix-blend-mode: normal"><g transform="scale(2,2)"><path d="M119,64c0,30.4 -24.6,55 -55,55c-30.4,0 -55,-24.6 -55,-55c0,-30.4 24.6,-55 55,-55c6.5,0 12.8,1.1 18.6,3.2c21.2,7.6 36.4,27.9 36.4,51.8z" fill="#89bdfb"></path><path d="M117.9,52.9c-3.9,-18.9 -17.5,-34.3 -35.3,-40.7c-0.1,0 -0.2,-0.1 -0.2,-0.1l0.2,10.6c0,2.7 -1.6,5.2 -4.1,6.3c-5.5,2.4 -11,1.1 -13.3,7.4c-1.9,4.7 3.1,17.6 9.2,17.6c7.7,0 11.4,-15.5 13.7,-15.5c1.5,0 3.8,4.7 6.5,8.2c1.8,2.4 4.6,3.7 7.6,3.7h5.1zM73.8,76c-2.8,3.9 11.9,15.8 16.8,13.5c8.3,-3.9 13.7,-12 13.7,-15c0,-3 -3.9,-8.8 -17.2,0.2c-3.7,2.7 -10.4,-2.7 -13.3,1.3zM51.5,65.1c2.9,-2.9 3.8,-7.4 2.3,-10c-4.8,-8.7 -16.2,-4.1 -17.3,5c-0.6,5.5 -3.9,11.1 -6.7,14c-2.8,2.8 -8.3,1.3 -9.8,-2.8c-1.7,-4.6 4.2,-6.3 3.3,-12.2c-0.2,-1.6 -1.9,-2.4 -4,-2.7l-9.9,0.4c-0.2,2.3 -0.4,4.7 -0.4,7.2c0,26.3 18.4,48.3 43.1,53.7v-9.8c0,0 0,0 -2.5,-2.5c-2.5,-2.5 2.6,-6.7 4,-12c3.9,-15 -9.1,-15.6 -9.5,-18.9c-0.4,-3.7 4.5,-6.5 7.4,-9.4z" fill="#9dffdc"></path><path d="M64,122c-32,0 -58,-26 -58,-58c0,-32 26,-58 58,-58c6.7,0 13.3,1.1 19.6,3.4c23,8.2 38.4,30.2 38.4,54.6c0,32 -26,58 -58,58zM64,12c-28.7,0 -52,23.3 -52,52c0,28.7 23.3,52 52,52c28.7,0 52,-23.3 52,-52c0,-21.9 -13.8,-41.6 -34.4,-49c-5.7,-2 -11.6,-3 -17.6,-3z" fill="#444b54"></path><path d="M52.1,110.9c-0.8,0 -1.5,-0.3 -2.1,-0.9l-2.5,-2.5c-3.1,-3.1 -0.8,-7 0.8,-9.8c1,-1.6 2,-3.3 2.4,-5.1c2.2,-8.4 -1.6,-10.7 -5.2,-12.9c-2,-1.2 -4,-2.4 -4.3,-4.9c-0.5,-4.4 3.1,-7.4 5.9,-9.9c0.8,-0.7 1.6,-1.4 2.3,-2c2.1,-2.1 2.5,-5.2 1.8,-6.4c-1.8,-3.2 -4.4,-3.2 -5.8,-3c-2.5,0.5 -5.5,2.9 -5.9,6.9c-0.7,6.3 -4.4,12.6 -7.6,15.8c-2,2 -4.9,2.8 -7.8,2.1c-3.2,-0.7 -5.8,-3 -6.9,-6c-1.3,-3.7 0.4,-6.3 1.7,-8.3c1.1,-1.6 1.7,-2.7 1.5,-4.2c-0.2,-0.1 -0.6,-0.3 -1.6,-0.5c-1.6,-0.3 -2.7,-1.9 -2.4,-3.5c0.3,-1.6 1.9,-2.7 3.5,-2.4c4.8,0.9 6.1,3.3 6.4,5.2c0.6,4.1 -1.1,6.7 -2.4,8.7c-1.2,1.8 -1.3,2.2 -1,2.9c0.5,1.3 1.6,1.9 2.6,2.2c0.4,0.1 1.5,0.3 2.3,-0.5c2.5,-2.5 5.3,-7.6 5.9,-12.2c0.7,-6 5.1,-11 10.7,-12.1c4.9,-1 9.6,1.3 12.2,5.9c2.2,4 1,9.8 -2.8,13.6c-0.8,0.8 -1.7,1.6 -2.6,2.3c-1.6,1.3 -3.5,2.9 -3.8,4.1c0.4,0.3 0.9,0.6 1.4,0.9c3.6,2.2 11.2,6.8 7.9,19.6c-0.7,2.5 -2,4.8 -3,6.6c-0.5,0.9 -1.3,2.2 -1.5,2.8l2.2,2.2c1.2,1.2 1.2,3.1 0,4.2c-0.8,0.8 -1.5,1.1 -2.3,1.1zM20.5,59.9v0zM89.2,92.8c-5.6,0 -12.8,-5.8 -15.8,-9.4c-3.8,-4.5 -3.2,-7.5 -2,-9.1c2.7,-3.8 7.1,-2.8 9.9,-2.2c1.6,0.3 3.5,0.7 4.2,0.2c7.5,-5.2 13.5,-6.6 17.8,-4.4c3,1.6 4.1,4.6 4.1,6.6c0,4.7 -6.9,13.7 -15.5,17.7c-0.8,0.4 -1.7,0.6 -2.7,0.6zM76.6,77.5c0.5,1.3 2.8,4.1 6.6,6.7c3.4,2.3 5.7,2.7 6.2,2.6c7.4,-3.5 11.9,-10.6 12,-12.3v0c0,0 0,-0.8 -0.9,-1.3c-1.6,-0.8 -5.4,-0.2 -11.6,4c-2.8,1.9 -6.1,1.2 -8.8,0.7c-1.6,-0.3 -2.9,-0.6 -3.5,-0.4zM76.3,77.7v0zM73.8,76v0zM74.4,57c-3.1,0 -6,-1.9 -8.4,-5.4c-3.1,-4.4 -5.4,-11.9 -3.7,-16.3c2.2,-5.9 6.8,-6.9 10.5,-7.8c1.5,-0.3 3,-0.7 4.4,-1.3c1.4,-0.6 2.3,-2 2.3,-3.5c0,-1.7 1.3,-3 3,-3c1.7,0 3,1.3 3,3c0,3.9 -2.3,7.5 -5.9,9c-1.9,0.8 -3.8,1.3 -5.5,1.7c-3.7,0.9 -5.2,1.3 -6.3,4.1c-0.6,1.7 0.4,6.9 3,10.7c1.2,1.7 2.5,2.8 3.5,2.8c3.2,0 6.2,-6 8,-9.5c1.8,-3.6 3,-6 5.7,-6c2.6,0 4.1,2.4 6.5,5.9c0.8,1.2 1.6,2.4 2.4,3.5c1.2,1.6 3.1,2.5 5.2,2.5h5.1c1.7,0 3,1.3 3,3c0,1.7 -1.3,3 -3,3h-5.1c-4,0 -7.7,-1.8 -10,-4.9c-0.9,-1.2 -1.8,-2.6 -2.6,-3.8c-0.3,-0.5 -0.7,-1.1 -1.1,-1.7c-0.2,0.4 -0.4,0.9 -0.6,1.2c-2.6,5.1 -6.5,12.8 -13.4,12.8z" fill="#444b54"></path></g></g></svg>