<svg version="1.1" xmlns="http://www.w3.org/2000/svg" xmlns:xlink="http://www.w3.org/1999/xlink" width="128px" height="128px" viewBox="0,0,256,256"><g fill="none" fill-rule="nonzero" stroke="none" stroke-width="1" stroke-linecap="butt" stroke-linejoin="miter" stroke-miterlimit="10" stroke-dasharray="" stroke-dashoffset="0" font-family="none" font-weight="none" font-size="none" text-anchor="none" style="mix-blend-mode: normal"><g transform="scale(2,2)"><path d="M101,124h-74c-5.5,0 -10,-4.5 -10,-10v-100c0,-5.5 4.5,-10 10,-10h74c5.5,0 10,4.5 10,10v100c0,5.5 -4.5,10 -10,10z" fill="#ffffff"></path><path d="M101,127h-74c-7.2,0 -13,-5.8 -13,-13v-100c0,-7.2 5.8,-13 13,-13h74c7.2,0 13,5.8 13,13v100c0,7.2 -5.8,13 -13,13zM27,7c-3.9,0 -7,3.1 -7,7v100c0,3.9 3.1,7 7,7h74c3.9,0 7,-3.1 7,-7v-100c0,-3.9 -3.1,-7 -7,-7z" fill="#444b54"></path><path d="M94,38h-60c-1.7,0 -3,-1.3 -3,-3v-14c0,-1.7 1.3,-3 3,-3h60c1.7,0 3,1.3 3,3v14c0,1.7 -1.3,3 -3,3z" fill="#88c9fb"></path><path d="M34,62h12c1.7,0 3,-1.3 3,-3v-12c0,-1.7 -1.3,-3 -3,-3h-12c-1.7,0 -3,1.3 -3,3v12c0,1.7 1.3,3 3,3z" fill="#444b54"></path><path d="M34,110h12c1.7,0 3,-1.3 3,-3v-12c0,-1.7 -1.3,-3 -3,-3h-12c-1.7,0 -3,1.3 -3,3v12c0,1.7 1.3,3 3,3z" fill="#444b54"></path><path d="M34,86h12c1.7,0 3,-1.3 3,-3v-12c0,-1.7 -1.3,-3 -3,-3h-12c-1.7,0 -3,1.3 -3,3v12c0,1.7 1.3,3 3,3z" fill="#444b54"></path><path d="M58,62h12c1.7,0 3,-1.3 3,-3v-12c0,-1.7 -1.3,-3 -3,-3h-12c-1.7,0 -3,1.3 -3,3v12c0,1.7 1.3,3 3,3z" fill="#444b54"></path><path d="M58,110h12c1.7,0 3,-1.3 3,-3v-12c0,-1.7 -1.3,-3 -3,-3h-12c-1.7,0 -3,1.3 -3,3v12c0,1.7 1.3,3 3,3z" fill="#444b54"></path><path d="M58,86h12c1.7,0 3,-1.3 3,-3v-12c0,-1.7 -1.3,-3 -3,-3h-12c-1.7,0 -3,1.3 -3,3v12c0,1.7 1.3,3 3,3z" fill="#444b54"></path><path d="M82,62h12c1.7,0 3,-1.3 3,-3v-12c0,-1.7 -1.3,-3 -3,-3h-12c-1.7,0 -3,1.3 -3,3v12c0,1.7 1.3,3 3,3z" fill="#444b54"></path><path d="M82,110h12c1.7,0 3,-1.3 3,-3v-36c0,-1.7 -1.3,-3 -3,-3h-12c-1.7,0 -3,1.3 -3,3v36c0,1.7 1.3,3 3,3z" fill="#444b54"></path></g></g></svg>