<svg version="1.1" xmlns="http://www.w3.org/2000/svg" xmlns:xlink="http://www.w3.org/1999/xlink" width="128px" height="128px" viewBox="0,0,256,256"><g fill="none" fill-rule="nonzero" stroke="none" stroke-width="1" stroke-linecap="butt" stroke-linejoin="miter" stroke-miterlimit="10" stroke-dasharray="" stroke-dashoffset="0" font-family="none" font-weight="none" font-size="none" text-anchor="none" style="mix-blend-mode: normal"><g transform="scale(2,2)"><path d="M102.2,30.8v78.2c0,5.5 -4.5,10 -10,10h-56.4c-5.5,0 -10,-4.5 -10,-10v-78.2h76.4" fill="#77bffb"></path><path d="M102.2,30.8h-15v78.2c0,5.5 -4.5,10 -10,10h15c5.5,0 10,-4.5 10,-10v-78.2" fill="#6aaade"></path><path d="M50.8,49.6c-1.7,0 -3,1.3 -3,3v44.5c0,1.7 1.3,3 3,3c1.7,0 3,-1.3 3,-3v-44.5c0,-1.6 -1.3,-3 -3,-3zM77.2,49.6c-1.7,0 -3,1.3 -3,3v44.5c0,1.7 1.3,3 3,3c1.7,0 3,-1.3 3,-3v-44.5c0,-1.6 -1.4,-3 -3,-3z" fill="#454b54"></path><path d="M14.9,33.8h7.9v75.2c0,7.2 5.8,13 13,13h56.4c7.2,0 13,-5.8 13,-13v-75.2h7.9c1.7,0 3,-1.3 3,-3c0,-1.7 -1.3,-3 -3,-3h-31.9v-4.6c0,-9.5 -7.7,-17.2 -17.2,-17.2c-4.6,0 -8.9,1.8 -12.1,5c-3.2,3.2 -5,7.6 -5,12.2v4.6h-32c-1.7,0 -3,1.3 -3,3c0,1.7 1.4,3 3,3zM92.2,116h-56.4c-3.9,0 -7,-3.1 -7,-7v-75.2h70.4v75.2c0,3.9 -3.2,7 -7,7zM64,12c6.2,0 11.2,5 11.2,11.2v4.6h-22.4v-4.6c0,-3 1.2,-5.8 3.3,-7.9c2.1,-2.1 4.9,-3.3 7.9,-3.3z" fill="#454b54"></path></g></g></svg>