<svg version="1.1" xmlns="http://www.w3.org/2000/svg" xmlns:xlink="http://www.w3.org/1999/xlink" viewBox="0,0,256,256"><g fill="none" fill-rule="nonzero" stroke="none" stroke-width="none" stroke-linecap="none" stroke-linejoin="none" stroke-miterlimit="10" stroke-dasharray="" stroke-dashoffset="0" font-family="none" font-weight="none" font-size="none" text-anchor="none" style="mix-blend-mode: normal"><g transform="scale(5.33333,5.33333)"><path d="M17.5,17.5c0,0 0,-1.9 0,-5.5c0,-3.6 2.9,-6.5 6.5,-6.5c3.6,0 6.5,2.9 6.5,6.5c0,2 0,5.5 0,5.5" fill="none" stroke="#444444" stroke-width="3" stroke-linecap="butt" stroke-linejoin="miter"></path><circle cx="24" cy="30" r="3" fill="#444444" stroke="none" stroke-width="1" stroke-linecap="butt" stroke-linejoin="miter"></circle><path d="M24,30v6" fill="none" stroke="#444444" stroke-width="3" stroke-linecap="round" stroke-linejoin="round"></path><path d="M23.9,42.5h-11.4c-1.7,0 -3,-1.3 -3,-3v-19c0,-1.7 1.3,-3 3,-3h5" fill="none" stroke="#444444" stroke-width="3" stroke-linecap="round" stroke-linejoin="round"></path><path d="M24,17.5h11.5c1.7,0 3,1.3 3,3v19c0,1.7 -1.3,3 -3,3h-5" fill="none" stroke="#444444" stroke-width="3" stroke-linecap="round" stroke-linejoin="round"></path></g></g></svg>