<svg version="1.1" xmlns="http://www.w3.org/2000/svg" xmlns:xlink="http://www.w3.org/1999/xlink" width="48px" height="48px" viewBox="0,0,256,256"><g fill="none" fill-rule="nonzero" stroke="none" stroke-width="none" stroke-linecap="none" stroke-linejoin="none" stroke-miterlimit="10" stroke-dasharray="" stroke-dashoffset="0" font-family="none" font-weight="none" font-size="none" text-anchor="none" style="mix-blend-mode: normal"><g transform="scale(5.33333,5.33333)"><path d="M41,43h-26c-1.1,0 -2,-0.9 -2,-2v-26c0,-1.1 0.9,-2 2,-2h26c1.1,0 2,0.9 2,2v26c0,1.1 -0.9,2 -2,2z" fill="#77b4f4" stroke="none" stroke-width="1" stroke-linecap="butt" stroke-linejoin="miter"></path><path d="M22.5,20.5h3c1.1,0 2,0.9 2,2v3c0,1.1 -0.9,2 -2,2h-3c-1.1,0 -2,-0.9 -2,-2v-3c0,-1.1 0.9,-2 2,-2z" fill="none" stroke="#18193f" stroke-width="3" stroke-linecap="round" stroke-linejoin="round"></path><path d="M34.5,20.4h3c1.1,0 2,0.9 2,2v3c0,1.1 -0.9,2 -2,2h-3c-1.1,0 -2,-0.9 -2,-2v-3c0,-1.1 0.9,-2 2,-2z" fill="none" stroke="#18193f" stroke-width="3" stroke-linecap="round" stroke-linejoin="round"></path><path d="M10.5,20.4h3c1.1,0 2,0.9 2,2v3c0,1.1 -0.9,2 -2,2h-3c-1.1,0 -2,-0.9 -2,-2" fill="none" stroke="#18193f" stroke-width="3" stroke-linecap="round" stroke-linejoin="round"></path><path d="M27.5,13.6c0,1.1 -0.9,2 -2,2h-3c-1.1,0 -2,-0.9 -2,-2v-3c0,-1.1 0.9,-2 2,-2" fill="none" stroke="#18193f" stroke-width="3" stroke-linecap="round" stroke-linejoin="round"></path><path d="M34.5,8.5h3c1.1,0 2,0.9 2,2v3c0,1.1 -0.9,2 -2,2h-3c-1.1,0 -2,-0.9 -2,-2v-3c0,-1.1 0.9,-2 2,-2z" fill="none" stroke="#18193f" stroke-width="3" stroke-linecap="round" stroke-linejoin="round"></path><path d="M10.5,8.5h3c1.1,0 2,0.9 2,2v3c0,1.1 -0.9,2 -2,2h-3c-1.1,0 -2,-0.9 -2,-2v-3c0,-1.1 0.9,-2 2,-2z" fill="none" stroke="#18193f" stroke-width="3" stroke-linecap="round" stroke-linejoin="round"></path><path d="M22.5,32.6h3c1.1,0 2,0.9 2,2v3c0,1.1 -0.9,2 -2,2h-3c-1.1,0 -2,-0.9 -2,-2v-3c0,-1.1 0.9,-2 2,-2z" fill="none" stroke="#18193f" stroke-width="3" stroke-linecap="round" stroke-linejoin="round"></path><path d="M34.5,32.5h3c1.1,0 2,0.9 2,2v3c0,1.1 -0.9,2 -2,2h-3c-1.1,0 -1.9,-0.8 -2,-1.9" fill="none" stroke="#18193f" stroke-width="3" stroke-linecap="round" stroke-linejoin="round"></path><path d="M10.5,32.5h3c1.1,0 2,0.9 2,2v3c0,1.1 -0.9,2 -2,2h-3c-1.1,0 -2,-0.9 -2,-2v-3c0,-1.1 0.9,-2 2,-2z" fill="none" stroke="#18193f" stroke-width="3" stroke-linecap="round" stroke-linejoin="round"></path></g></g></svg>