<svg version="1.1" xmlns="http://www.w3.org/2000/svg" xmlns:xlink="http://www.w3.org/1999/xlink" viewBox="0,0,256,256"><g fill="none" fill-rule="nonzero" stroke="none" stroke-width="1" stroke-linecap="butt" stroke-linejoin="miter" stroke-miterlimit="10" stroke-dasharray="" stroke-dashoffset="0" font-family="none" font-weight="none" font-size="none" text-anchor="none" style="mix-blend-mode: normal"><g transform="scale(5.33333,5.33333)"><path d="M36,6h-24c-3.314,0 -6,2.686 -6,6v24c0,3.314 2.686,6 6,6h24c3.314,0 6,-2.686 6,-6v-24c0,-3.314 -2.686,-6 -6,-6z" fill="#50e6ff"></path><path d="M36,40h-24c-2.209,0 -4,-1.791 -4,-4v-24c0,-2.209 1.791,-4 4,-4h24c2.209,0 4,1.791 4,4v24c0,2.209 -1.791,4 -4,4z" fill="#092347"></path><path d="M14.507,15.372c0,-0.106 0.077,-0.195 0.182,-0.207c0.4,-0.044 1.516,-0.135 3.897,-0.135c3.588,0 6.101,1.423 6.101,5.317c0,3.512 -2.391,5.573 -6.249,5.573c-0.225,0 -0.45,0 -1.216,0v5.882c0,0.098 -0.08,0.178 -0.178,0.178h-2.358c-0.098,0 -0.178,-0.08 -0.178,-0.178v-16.43zM17.222,23.447c0,0 1.187,0.008 1.455,0.008c2.203,0 3.205,-1.306 3.205,-3.056c0,-1.639 -0.974,-2.917 -3.01,-2.917c-0.839,0 -1.649,0.048 -1.649,0.048v5.917z" fill="#ffffff"></path><path d="M26.156,28.97c0,-0.095 0.103,-0.154 0.182,-0.102c0.504,0.337 1.527,0.914 3.111,0.914c1.034,0 1.688,-0.445 1.688,-1.171c0,-0.804 -1.105,-1.387 -2.017,-1.882c-0.907,-0.492 -2.944,-1.282 -2.944,-3.826c0,-2.255 1.802,-3.615 4.256,-3.615c0.94,0 1.977,0.146 2.677,0.401c0.115,0.042 0.185,0.154 0.185,0.277v2.291c0,0.094 -0.099,0.155 -0.178,0.103c-0.439,-0.287 -1.407,-0.726 -2.739,-0.726c-1.109,0 -1.597,0.54 -1.597,1.09c0,0.964 1.284,1.367 2.436,2.043c1.797,1 2.63,1.977 2.63,3.508c0,2.504 -1.867,3.91 -4.396,3.91c-1.306,0 -2.534,-0.285 -3.162,-0.667c-0.087,-0.053 -0.131,-0.149 -0.131,-0.251z" fill="#ffffff"></path></g></g></svg>