<svg version="1.1" xmlns="http://www.w3.org/2000/svg" xmlns:xlink="http://www.w3.org/1999/xlink" viewBox="0,0,256,256"><g fill="none" fill-rule="nonzero" stroke="none" stroke-width="1" stroke-linecap="butt" stroke-linejoin="miter" stroke-miterlimit="10" stroke-dasharray="" stroke-dashoffset="0" font-family="none" font-weight="none" font-size="none" text-anchor="none" style="mix-blend-mode: normal"><g transform="scale(5.33333,5.33333)"><path d="M38,42h-28c-2.209,0 -4,-1.791 -4,-4v-28c0,-2.209 1.791,-4 4,-4h28c2.209,0 4,1.791 4,4v28c0,2.209 -1.791,4 -4,4z" fill="#b30b00"></path><path d="M35.241,26.799c-1.692,-1.757 -6.314,-1.041 -7.42,-0.911c-1.627,-1.562 -2.734,-3.45 -3.124,-4.101c0.586,-1.757 0.976,-3.515 1.041,-5.402c0,-1.627 -0.651,-3.385 -2.473,-3.385c-0.651,0 -1.237,0.391 -1.562,0.911c-0.781,1.367 -0.456,4.101 0.781,6.899c-0.716,2.018 -1.367,3.97 -3.189,7.42c-1.888,0.781 -5.858,2.604 -6.183,4.556c-0.13,0.586 0.065,1.172 0.521,1.627c0.455,0.392 1.04,0.587 1.626,0.587c2.408,0 4.751,-3.32 6.379,-6.118c1.367,-0.456 3.515,-1.107 5.663,-1.497c2.538,2.213 4.751,2.538 5.923,2.538c1.562,0 2.148,-0.651 2.343,-1.237c0.325,-0.65 0.13,-1.366 -0.326,-1.887zM33.614,27.905c-0.065,0.456 -0.651,0.911 -1.692,0.651c-1.237,-0.325 -2.343,-0.911 -3.32,-1.692c0.846,-0.13 2.734,-0.325 4.101,-0.065c0.521,0.13 1.041,0.455 0.911,1.106zM22.744,14.497c0.13,-0.195 0.325,-0.325 0.521,-0.325c0.586,0 0.716,0.716 0.716,1.302c-0.065,1.367 -0.325,2.734 -0.781,4.036c-0.976,-2.605 -0.781,-4.427 -0.456,-5.013zM22.614,27.124c0.521,-1.041 1.237,-2.864 1.497,-3.645c0.586,0.976 1.562,2.148 2.083,2.669c0,0.065 -2.018,0.456 -3.58,0.976zM18.774,29.728c-1.497,2.473 -3.059,4.036 -3.905,4.036c-0.13,0 -0.26,-0.065 -0.391,-0.13c-0.195,-0.13 -0.26,-0.325 -0.195,-0.586c0.195,-0.912 1.887,-2.149 4.491,-3.32z" fill="#ffffff"></path></g></g></svg>