<svg version="1.1" xmlns="http://www.w3.org/2000/svg" xmlns:xlink="http://www.w3.org/1999/xlink" width="128px" height="128px" viewBox="0,0,256,256"><g fill="none" fill-rule="nonzero" stroke="none" stroke-width="1" stroke-linecap="butt" stroke-linejoin="miter" stroke-miterlimit="10" stroke-dasharray="" stroke-dashoffset="0" font-family="none" font-weight="none" font-size="none" text-anchor="none" style="mix-blend-mode: normal"><g transform="scale(2,2)"><path d="M76.5,97.3h-13.2h-11.8c0,7.9 -1.2,12.7 -6.7,15.3h38.3c-5.3,-2.5 -6.6,-7.4 -6.6,-15.3z" fill="#c8d9e4"></path><path d="M83.2,115.7h-38.4c-1.4,0 -2.6,-1 -2.9,-2.3c-0.3,-1.4 0.4,-2.8 1.6,-3.4c2,-0.9 3.5,-1.3 4.5,-1.5c0.1,0 0.2,0 0.3,-0.1c0.1,-0.5 0.1,-1.4 0.1,-3.1c0,-1.7 1.3,-3 3,-3c1.7,0 3,1.3 3,3c0,1.7 -0.1,3.1 -0.3,4.3h19.5c-0.2,-1.2 -0.3,-2.6 -0.3,-4.3c0,-1.7 1.3,-3 3,-3c1.7,0 3,1.3 3,3c0,1.7 0.1,2.6 0.1,3.1c0.1,0 0.2,0 0.3,0.1c1,0.2 2.6,0.5 4.5,1.5c1.3,0.6 1.9,2 1.6,3.4c0,1.3 -1.2,2.3 -2.6,2.3z" fill="#454b54"></path><path d="M86,115.7h-44c-1.7,0 -3,-1.3 -3,-3c0,-1.7 1.3,-3 3,-3h44c1.7,0 3,1.3 3,3c0,1.7 -1.3,3 -3,3z" fill="#454b54"></path><path d="M109.8,18.2h-91.6c-2.3,0 -4.2,1.9 -4.2,4.2v70.8c0,2.3 1.9,4.2 4.2,4.2h91.7c2.3,0 4.2,-1.9 4.2,-4.2v-70.9c-0.1,-2.3 -2,-4.1 -4.3,-4.1z" fill="#c8d9e4"></path><path d="M109.8,18.2h-91.6c-2.3,0 -4.2,1.9 -4.2,4.2v58.3h100v-58.4c0,-2.3 -1.9,-4.1 -4.2,-4.1z" fill="#ffffff"></path><path d="M114,83.7h-100c-1.7,0 -3,-1.3 -3,-3c0,-1.7 1.3,-3 3,-3h100c1.7,0 3,1.3 3,3c0,1.7 -1.3,3 -3,3z" fill="#454b54"></path><path d="M109.8,100.3h-91.6c-4,0 -7.2,-3.2 -7.2,-7.2v-70.8c0,-4 3.2,-7.2 7.2,-7.2h91.7c4,0 7.2,3.2 7.2,7.2v70.8c-0.1,4 -3.3,7.2 -7.3,7.2zM18.2,21.2c-0.6,0 -1.2,0.5 -1.2,1.2v70.8c0,0.6 0.5,1.2 1.2,1.2h91.7c0.6,0 1.2,-0.5 1.2,-1.2v-70.9c0,-0.6 -0.5,-1.2 -1.2,-1.2h-91.7z" fill="#454b54"></path><g fill="#ffffff"><path d="M64,86c-1.65685,0 -3,1.34315 -3,3c0,1.65685 1.34315,3 3,3c1.65685,0 3,-1.34315 3,-3c0,-1.65685 -1.34315,-3 -3,-3z"></path></g></g></g></svg>