<svg version="1.1" xmlns="http://www.w3.org/2000/svg" xmlns:xlink="http://www.w3.org/1999/xlink" width="128px" height="128px" viewBox="0,0,256,256"><g fill="none" fill-rule="nonzero" stroke="none" stroke-width="1" stroke-linecap="butt" stroke-linejoin="miter" stroke-miterlimit="10" stroke-dasharray="" stroke-dashoffset="0" font-family="none" font-weight="none" font-size="none" text-anchor="none" style="mix-blend-mode: normal"><g transform="scale(2,2)"><path d="M11.3,94.8l13.8,-78.2c0.8,-4.3 4.9,-7.2 9.2,-6.4l78.1,13.8c4.3,0.8 7.2,4.9 6.4,9.2l-13.8,78.2c-0.8,4.3 -4.9,7.2 -9.2,6.4l-78.1,-13.8c-4.3,-0.7 -7.2,-4.9 -6.4,-9.2z" fill="#89b7df"></path><path d="M96,113.1h-79.4c-4.4,0 -7.9,-3.6 -7.9,-7.9v-79.4c0,-4.4 3.6,-7.9 7.9,-7.9h79.4c4.4,0 7.9,3.6 7.9,7.9v79.4c0.1,4.4 -3.5,7.9 -7.9,7.9z" fill="#f7f7fb"></path><path d="M88.4,85.4h-63.5c-4.4,0 -7.9,-3.6 -7.9,-7.9v-43.8c0,-4.4 3.6,-7.9 7.9,-7.9h63.5c4.4,0 7.9,3.6 7.9,7.9v43.7c0,4.4 -3.5,8 -7.9,8z" fill="#d6e7f2"></path><path d="M24.9,85.4h31l-18.3,-21.9l-16,21.2c1,0.4 2.1,0.7 3.3,0.7z" fill="#455e80"></path><path d="M45.5,85.4h42.9c1.7,0 3.3,-0.6 4.6,-1.5l-23.7,-31.5z" fill="#6588bf"></path><path d="M50.4,42.2c-3.31371,0 -6,2.68629 -6,6c0,3.31371 2.68629,6 6,6c3.31371,0 6,-2.68629 6,-6c0,-3.31371 -2.68629,-6 -6,-6z" fill="#ffffff"></path><path d="M96.3,116.1h-79.4c-6,0 -10.9,-4.9 -10.9,-10.9v-79.4c0,-6 4.9,-10.9 10.9,-10.9h79.4c6,0 10.9,4.9 10.9,10.9v79.4c0.1,6 -4.8,10.9 -10.9,10.9zM16.9,20.9c-2.7,0 -4.9,2.2 -4.9,4.9v79.4c0,2.7 2.2,4.9 4.9,4.9h79.4c2.7,0 4.9,-2.2 4.9,-4.9v-79.4c0,-2.7 -2.2,-4.9 -4.9,-4.9z" fill="#454b54"></path></g></g></svg>