<svg version="1.1" xmlns="http://www.w3.org/2000/svg" xmlns:xlink="http://www.w3.org/1999/xlink" viewBox="0,0,256,256"><defs><linearGradient x1="12" y1="24" x2="44" y2="24" gradientUnits="userSpaceOnUse" id="color-1"><stop offset="0" stop-color="#c965eb"></stop><stop offset="1" stop-color="#c767e5"></stop></linearGradient><linearGradient x1="39.5" y1="42" x2="39.5" y2="33.054" gradientUnits="userSpaceOnUse" id="color-2"><stop offset="0" stop-color="#7819a2"></stop><stop offset="1" stop-color="#771aa9"></stop></linearGradient><linearGradient x1="35" y1="19.504" x2="44" y2="19.504" gradientUnits="userSpaceOnUse" id="color-3"><stop offset="0" stop-color="#ae4cd5"></stop><stop offset="1" stop-color="#ac4ad5"></stop></linearGradient><linearGradient x1="35" y1="28.53" x2="44" y2="28.53" gradientUnits="userSpaceOnUse" id="color-4"><stop offset="0" stop-color="#912fbd"></stop><stop offset="1" stop-color="#9332bf"></stop></linearGradient><linearGradient x1="4.586" y1="14.586" x2="23.414" y2="33.414" gradientUnits="userSpaceOnUse" id="color-5"><stop offset="0" stop-color="#8521b0"></stop><stop offset="1" stop-color="#64129a"></stop></linearGradient></defs><g fill="none" fill-rule="nonzero" stroke="none" stroke-width="1" stroke-linecap="butt" stroke-linejoin="miter" stroke-miterlimit="10" stroke-dasharray="" stroke-dashoffset="0" font-family="none" font-weight="none" font-size="none" text-anchor="none" style="mix-blend-mode: normal"><g transform="scale(5.33333,5.33333)"><path d="M42,6h-28c-1.105,0 -2,0.895 -2,2v32c0,1.105 0.895,2 2,2h21v-26.997h9v-7.003c0,-1.105 -0.895,-2 -2,-2z" fill="url(#color-1)"></path><path d="M35,33.054v8.946h7c1.105,0 2,-0.895 2,-2v-6.945l-9,-0.001z" fill="url(#color-2)"></path><path d="M35,15.003h9v9.002h-9z" fill="url(#color-3)"></path><path d="M35,24.005h9v9.05h-9z" fill="url(#color-4)"></path><path d="M22.319,13h-10.319v24h10.319c2.033,0 3.681,-1.648 3.681,-3.681v-16.638c0,-2.033 -1.648,-3.681 -3.681,-3.681z" fill="#000000" opacity="0.05"></path><path d="M22.213,36h-10.213v-22.667h10.213c1.724,0 3.121,1.397 3.121,3.121v16.425c-0.001,1.724 -1.398,3.121 -3.121,3.121z" fill="#000000" opacity="0.07"></path><path d="M22.106,35h-10.106v-21.333h10.106c1.414,0 2.56,1.146 2.56,2.56v16.213c0.001,1.414 -1.146,2.56 -2.56,2.56z" fill="#000000" opacity="0.09"></path><path d="M22,34h-16c-1.105,0 -2,-0.895 -2,-2v-16c0,-1.105 0.895,-2 2,-2h16c1.105,0 2,0.895 2,2v16c0,1.105 -0.895,2 -2,2z" fill="url(#color-5)"></path><path d="M16.501,19v7.393l-4.722,-7.393h-2.189v10h1.909v-7.45l4.759,7.45h2.152v-10z" fill="#ffffff"></path></g></g></svg>