<svg version="1.1" xmlns="http://www.w3.org/2000/svg" xmlns:xlink="http://www.w3.org/1999/xlink" viewBox="0,0,256,256"><g fill="none" fill-rule="nonzero" stroke="none" stroke-width="1" stroke-linecap="butt" stroke-linejoin="miter" stroke-miterlimit="10" stroke-dasharray="" stroke-dashoffset="0" font-family="none" font-weight="none" font-size="none" text-anchor="none" style="mix-blend-mode: normal"><g transform="scale(2,2)"><path d="M106.9,55.3c-0.8,-2.8 -1.8,-5.4 -3.2,-7.9l8.8,-8.8l-12.7,-12.6l-8.8,8.8c-4.9,-2.8 -10.5,-4.3 -16.3,-4.4l-3.2,-12l-17.3,4.6l3.2,12c-5,2.9 -9.1,7.1 -11.9,11.9l-12,-3.2l-4.5,17.4l12,3.2c0,2.8 0.4,5.6 1.1,8.4c0.8,2.8 1.8,5.4 3.2,7.9l-8.8,8.8l12.7,12.6l8.8,-8.8c4.9,2.8 10.5,4.3 16.3,4.4l3.2,12l17.3,-4.6l-3.2,-12c5,-2.9 9.1,-7.1 11.9,-11.9l12,3.2l4.6,-17.3l-12,-3.2c0,-2.9 -0.4,-5.7 -1.2,-8.5zM78.6,79.1c-8.4,2.2 -16.9,-2.7 -19.2,-11.1c-2.3,-8.4 2.7,-16.9 11.1,-19.2c8.4,-2.2 16.9,2.7 19.2,11.1c2.2,8.4 -2.8,17 -11.1,19.2z" fill="#cadbe9"></path><path d="M96.9,55.3c-0.8,-2.8 -1.8,-5.4 -3.2,-7.9l8.8,-8.8l-12.7,-12.6l-8.8,8.8c-4.9,-2.8 -10.5,-4.3 -16.3,-4.4l-3.2,-12l-17.3,4.6l3.2,12c-5,2.9 -9.1,7.1 -11.9,11.9l-12,-3.2l-4.5,17.4l12,3.2c0,2.8 0.4,5.6 1.1,8.4c0.8,2.8 1.8,5.4 3.2,7.9l-8.8,8.8l12.7,12.6l8.8,-8.8c4.9,2.8 10.5,4.3 16.3,4.4l3.2,12l17.3,-4.6l-3.2,-12c5,-2.9 9.1,-7.1 11.9,-11.9l12,3.2l4.6,-17.3l-12,-3.2c0,-2.9 -0.4,-5.7 -1.2,-8.5zM68.6,79.1c-8.4,2.2 -16.9,-2.7 -19.2,-11.1c-2.3,-8.4 2.7,-16.9 11.1,-19.2c8.4,-2.2 16.9,2.7 19.2,11.1c2.2,8.4 -2.8,17 -11.1,19.2z" fill="#ffffff"></path><path d="M67.5,112.5c-1.3,0 -2.5,-0.9 -2.9,-2.2l-2.6,-9.8c-4.6,-0.3 -9.2,-1.6 -13.4,-3.6l-7.2,7.2c-1.2,1.2 -3.1,1.2 -4.2,0l-12.8,-12.7c-1.2,-1.2 -1.2,-3.1 0,-4.2l7.2,-7.2c-1,-2.1 -1.8,-4.3 -2.4,-6.5c-0.6,-2.3 -1,-4.6 -1.2,-6.9l-9.8,-2.6c-0.8,-0.2 -1.4,-0.7 -1.8,-1.4c-0.4,-0.7 -0.5,-1.5 -0.3,-2.3l4.6,-17.3c0.2,-0.8 0.7,-1.4 1.4,-1.8c0.7,-0.4 1.5,-0.5 2.3,-0.3l9.8,2.6c2.6,-3.9 5.9,-7.2 9.8,-9.8l-2.6,-9.8c-0.4,-1.6 0.5,-3.2 2.1,-3.7l17.3,-4.6c1.6,-0.4 3.2,0.5 3.7,2.1l2.6,9.8c4.6,0.3 9.2,1.6 13.4,3.6l7.2,-7.2c1.1,-1.1 3.1,-1.1 4.2,0l12.7,12.7c1.2,1.2 1.2,3.1 0,4.2l-7.2,7.2c1,2.1 1.8,4.3 2.4,6.5c0.6,2.3 1,4.6 1.2,6.9l9.8,2.6c1.6,0.4 2.5,2.1 2.1,3.7l-4.6,17.3c-0.2,0.8 -0.7,1.4 -1.4,1.8c-0.7,0.4 -1.5,0.5 -2.3,0.3l-9.8,-2.6c-2.6,3.9 -5.9,7.2 -9.8,9.8l2.6,9.8c0.4,1.6 -0.5,3.2 -2.1,3.7l-17.3,4.6c-0.2,0.1 -0.5,0.1 -0.7,0.1zM48,90.2c0.5,0 1,0.1 1.5,0.4c4.5,2.6 9.6,3.9 14.8,4c1.3,0 2.5,0.9 2.9,2.2l2.4,9.1l11.5,-3.1l-2.4,-9.1c-0.3,-1.3 0.2,-2.7 1.4,-3.4c4.5,-2.6 8.2,-6.4 10.8,-10.8c0.7,-1.2 2.1,-1.7 3.4,-1.4l9.1,2.4l3.1,-11.5l-9.1,-2.4c-1.3,-0.3 -2.2,-1.5 -2.2,-2.9c0,-2.6 -0.4,-5.2 -1,-7.7v0c-0.7,-2.5 -1.7,-4.9 -2.9,-7.2c-0.7,-1.2 -0.5,-2.6 0.5,-3.6l6.6,-6.6l-8.4,-8.4l-6.6,6.6c-1,1 -2.4,1.2 -3.6,0.5c-4.5,-2.6 -9.6,-3.9 -14.8,-4c-1.3,0 -2.5,-0.9 -2.9,-2.2l-2.4,-9.1l-11.7,3.2l2.4,9.1c0.3,1.3 -0.2,2.7 -1.4,3.4c-4.5,2.6 -8.2,6.4 -10.8,10.8c-0.7,1.2 -2.1,1.7 -3.4,1.4l-9.1,-2.4l-3.1,11.5l9.1,2.4c1.3,0.3 2.2,1.5 2.2,2.9c0,2.6 0.4,5.2 1,7.7c0.7,2.5 1.7,4.9 2.9,7.2c0.7,1.2 0.5,2.6 -0.5,3.6l-6.6,6.6l8.4,8.4l6.7,-6.6c0.6,-0.7 1.4,-1 2.2,-1zM64.5,82.7c-3.2,0 -6.4,-0.8 -9.3,-2.5c-4.3,-2.5 -7.4,-6.5 -8.7,-11.3c-1.3,-4.8 -0.6,-9.8 1.9,-14.2c2.5,-4.3 6.5,-7.4 11.3,-8.7c9.9,-2.7 20.2,3.3 22.9,13.2c1.3,4.8 0.6,9.8 -1.9,14.2c-2.5,4.3 -6.5,7.4 -11.3,8.7v0c-1.7,0.4 -3.3,0.6 -4.9,0.6zM68.6,79.1v0zM64.5,51.3c-1.1,0 -2.2,0.1 -3.3,0.4c-3.3,0.9 -6,3 -7.7,5.9c-1.7,2.9 -2.1,6.3 -1.3,9.6c0.9,3.3 3,6 5.9,7.7c2.9,1.7 6.3,2.1 9.6,1.3v0c3.3,-0.9 6,-3 7.7,-5.9c1.7,-2.9 2.1,-6.3 1.3,-9.6c-1.5,-5.6 -6.6,-9.4 -12.2,-9.4z" fill="#3f4a54"></path></g></g></svg>