<svg version="1.1" xmlns="http://www.w3.org/2000/svg" xmlns:xlink="http://www.w3.org/1999/xlink" viewBox="0,0,256,256"><defs><linearGradient x1="24" y1="44" x2="24" y2="4" gradientUnits="userSpaceOnUse" id="color-1"><stop offset="0" stop-color="#0176d0"></stop><stop offset="1" stop-color="#16538c"></stop></linearGradient></defs><g fill="none" fill-rule="nonzero" stroke="none" stroke-width="1" stroke-linecap="butt" stroke-linejoin="miter" stroke-miterlimit="10" stroke-dasharray="" stroke-dashoffset="0" font-family="none" font-weight="none" font-size="none" text-anchor="none" style="mix-blend-mode: normal"><g transform="scale(5.33333,5.33333)"><path d="M44,24c0,11.04 -8.96,20 -20,20c-8.39,0 -15.57,-5.16 -18.53,-12.48c-0.09,-0.2 -0.16,-0.4 -0.24,-0.6c-0.07,-0.19 -0.14,-0.39 -0.2,-0.59c-0.67,-1.99 -1.03,-4.12 -1.03,-6.33c0,-0.17 0,-0.35 0.02,-0.52c-0.01,-0.17 0,-0.35 0.01,-0.52c0.54,-10.56 9.27,-18.96 19.97,-18.96c11.04,0 20,8.95 20,20z" fill="url(#color-1)"></path><circle cx="28.5" cy="18.5" r="3.5" fill="#ffffff"></circle><path d="M28.5,14.5c-2.21,0 -4,1.79 -4,4c0,2.21 1.79,4 4,4c2.21,0 4,-1.79 4,-4c0,-2.21 -1.79,-4 -4,-4zM28.5,22c-1.93,0 -3.5,-1.57 -3.5,-3.5c0,-1.93 1.57,-3.5 3.5,-3.5c1.93,0 3.5,1.57 3.5,3.5c0,1.93 -1.57,3.5 -3.5,3.5z" fill="#000000" opacity="0.07"></path><path d="M28.5,10c-4.69,0 -8.5,3.81 -8.5,8.5c0,0.18 0.02,0.35 0.03,0.52l-3.03,4.98c-2.07,0 -3.92,0.9 -5.2,2.32l-7.8,-2.32c0,2.21 0.36,4.34 1.03,6.33l5.04,1.61c0.46,3.42 3.38,6.06 6.93,6.06c3.87,0 7,-3.13 7,-7c0,-0.37 -0.04,-0.73 -0.09,-1.08l5.06,-2.94c4.47,-0.25 8.03,-3.95 8.03,-8.48c0,-4.69 -3.81,-8.5 -8.5,-8.5zM17,36c-2.18,0 -4.02,-1.41 -4.7,-3.35l3.75,1.19l0.01,-0.01c0,0.01 0.01,0.01 0.02,0.01c0.14,0.04 0.27,0.08 0.41,0.11c0.17,0.03 0.34,0.05 0.51,0.05c1.66,0 3,-1.34 3,-3c0,-1.3 -0.85,-2.41 -2.02,-2.82c-0.01,-0.01 -0.03,-0.03 -0.03,-0.03l-3.91,-1.16c0.83,-0.61 1.85,-0.99 2.96,-0.99c2.76,0 5,2.24 5,5c0,2.76 -2.24,5 -5,5zM28.5,24c-3.04,0 -5.5,-2.46 -5.5,-5.5c0,-3.04 2.46,-5.5 5.5,-5.5c3.04,0 5.5,2.46 5.5,5.5c0,3.04 -2.46,5.5 -5.5,5.5z" fill="#ffffff"></path><path d="M33.4,17.49c-0.07,-0.32 -0.17,-0.63 -0.29,-0.93c-0.06,-0.15 -0.14,-0.3 -0.21,-0.44c-0.47,-0.85 -1.17,-1.55 -2.02,-2.02c-0.14,-0.07 -0.29,-0.15 -0.44,-0.21c-0.3,-0.12 -0.61,-0.22 -0.93,-0.29c-0.33,-0.06 -0.67,-0.1 -1.01,-0.1c-0.34,0 -0.68,0.04 -1.01,0.1c-0.32,0.07 -0.63,0.17 -0.93,0.29c-0.15,0.06 -0.3,0.14 -0.44,0.21c-0.85,0.47 -1.55,1.17 -2.02,2.02c-0.07,0.14 -0.15,0.29 -0.21,0.44c-0.12,0.3 -0.22,0.61 -0.29,0.93c-0.06,0.33 -0.1,0.67 -0.1,1.01c0,0.34 0.04,0.68 0.1,1.01c0.07,0.32 0.17,0.63 0.29,0.93c0.06,0.15 0.14,0.3 0.21,0.44c0.47,0.85 1.17,1.55 2.02,2.02c0.14,0.07 0.29,0.15 0.44,0.21c0.3,0.12 0.61,0.22 0.93,0.29c0.33,0.06 0.67,0.1 1.01,0.1c0.34,0 0.68,-0.04 1.01,-0.1c0.32,-0.07 0.63,-0.17 0.93,-0.29c0.15,-0.06 0.3,-0.14 0.44,-0.21c0.85,-0.47 1.55,-1.17 2.02,-2.02c0.07,-0.14 0.15,-0.29 0.21,-0.44c0.12,-0.3 0.22,-0.61 0.29,-0.93c0.06,-0.33 0.1,-0.67 0.1,-1.01c0,-0.34 -0.04,-0.68 -0.1,-1.01zM28.5,22.5c-2.21,0 -4,-1.79 -4,-4c0,-2.21 1.79,-4 4,-4c2.21,0 4,1.79 4,4c0,2.21 -1.79,4 -4,4zM17,26.5c-0.59,0 -1.16,0.12 -1.7,0.34l2.79,0.83l0.12,0.06l0.01,0.01c1.37,0.51 2.28,1.81 2.28,3.26c0,1.93 -1.57,3.5 -3.5,3.5c-0.19,0 -0.39,-0.02 -0.59,-0.06h-0.03l-0.01,0.03l-0.47,-0.15l-2.63,-0.84c0.82,1.24 2.21,2.02 3.73,2.02c2.48,0 4.5,-2.02 4.5,-4.5c0,-2.48 -2.02,-4.5 -4.5,-4.5zM17,26.5c-0.59,0 -1.16,0.12 -1.7,0.34l2.79,0.83l0.12,0.06l0.01,0.01c1.37,0.51 2.28,1.81 2.28,3.26c0,1.93 -1.57,3.5 -3.5,3.5c-0.19,0 -0.39,-0.02 -0.59,-0.06h-0.03l-0.01,0.03l-0.47,-0.15l-2.63,-0.84c0.82,1.24 2.21,2.02 3.73,2.02c2.48,0 4.5,-2.02 4.5,-4.5c0,-2.48 -2.02,-4.5 -4.5,-4.5zM28.5,9c-5.24,0 -9.5,4.26 -9.5,9.5c0,0.09 0,0.18 0.01,0.27l-2.58,4.25c-1.84,0.13 -3.58,0.9 -4.92,2.17l-7.22,-2.15l-0.26,-0.08c-0.01,0.17 -0.02,0.35 -0.01,0.52l0.12,0.04l7.51,2.24c1.34,-1.37 3.16,-2.18 5.07,-2.25l2.8,-4.61c-0.01,-0.13 -0.02,-0.27 -0.02,-0.4c0,-4.96 4.04,-9 9,-9c4.96,0 9,4.04 9,9c0,4.73 -3.67,8.64 -8.38,8.97l-4.67,2.72c0.03,0.28 0.05,0.55 0.05,0.81c0,4.14 -3.36,7.5 -7.5,7.5c-3.63,0 -6.75,-2.64 -7.38,-6.18l-4.39,-1.4c0.08,0.2 0.15,0.4 0.24,0.6l3.72,1.19c0.79,3.63 4.04,6.29 7.81,6.29c4.41,0 8,-3.59 8,-8c0,-0.18 -0.01,-0.36 -0.02,-0.54l4.29,-2.5c4.92,-0.4 8.73,-4.51 8.73,-9.46c0,-5.24 -4.26,-9.5 -9.5,-9.5zM17,34.5c-0.19,0 -0.39,-0.02 -0.59,-0.06h-0.03l-0.01,0.03l-0.47,-0.15l-2.63,-0.84c0.82,1.24 2.21,2.02 3.73,2.02c2.48,0 4.5,-2.02 4.5,-4.5c0,-2.48 -2.02,-4.5 -4.5,-4.5c-0.59,0 -1.16,0.12 -1.7,0.34l2.79,0.83l0.12,0.06l0.01,0.01c1.37,0.51 2.28,1.81 2.28,3.26c0,1.93 -1.57,3.5 -3.5,3.5zM17,26.5c-0.59,0 -1.16,0.12 -1.7,0.34l2.79,0.83l0.12,0.06l0.01,0.01c1.37,0.51 2.28,1.81 2.28,3.26c0,1.93 -1.57,3.5 -3.5,3.5c-0.19,0 -0.39,-0.02 -0.59,-0.06h-0.03l-0.01,0.03l-0.47,-0.15l-2.63,-0.84c0.82,1.24 2.21,2.02 3.73,2.02c2.48,0 4.5,-2.02 4.5,-4.5c0,-2.48 -2.02,-4.5 -4.5,-4.5zM17,26.5c-0.59,0 -1.16,0.12 -1.7,0.34l2.79,0.83l0.12,0.06l0.01,0.01c1.37,0.51 2.28,1.81 2.28,3.26c0,1.93 -1.57,3.5 -3.5,3.5c-0.19,0 -0.39,-0.02 -0.59,-0.06h-0.03l-0.01,0.03l-0.47,-0.15l-2.63,-0.84c0.82,1.24 2.21,2.02 3.73,2.02c2.48,0 4.5,-2.02 4.5,-4.5c0,-2.48 -2.02,-4.5 -4.5,-4.5zM17,26.5c-0.59,0 -1.16,0.12 -1.7,0.34l2.79,0.83l0.12,0.06l0.01,0.01c1.37,0.51 2.28,1.81 2.28,3.26c0,1.93 -1.57,3.5 -3.5,3.5c-0.19,0 -0.39,-0.02 -0.59,-0.06h-0.03l-0.01,0.03l-0.47,-0.15l-2.63,-0.84c0.82,1.24 2.21,2.02 3.73,2.02c2.48,0 4.5,-2.02 4.5,-4.5c0,-2.48 -2.02,-4.5 -4.5,-4.5zM17,26.5c-0.59,0 -1.16,0.12 -1.7,0.34l2.79,0.83l0.12,0.06l0.01,0.01c1.37,0.51 2.28,1.81 2.28,3.26c0,1.93 -1.57,3.5 -3.5,3.5c-0.19,0 -0.39,-0.02 -0.59,-0.06h-0.03l-0.01,0.03l-0.47,-0.15l-2.63,-0.84c0.82,1.24 2.21,2.02 3.73,2.02c2.48,0 4.5,-2.02 4.5,-4.5c0,-2.48 -2.02,-4.5 -4.5,-4.5z" fill="#000000" opacity="0.05"></path><path d="M28.5,9.5c-4.96,0 -9,4.04 -9,9c0,0.13 0.01,0.27 0.02,0.4l-2.8,4.61c-1.91,0.07 -3.73,0.88 -5.07,2.25l-7.51,-2.24l-0.12,-0.04c-0.02,0.17 -0.02,0.35 -0.02,0.52l7.8,2.32c1.28,-1.42 3.13,-2.32 5.2,-2.32l3.03,-4.98c-0.01,-0.17 -0.03,-0.34 -0.03,-0.52c0,-4.69 3.81,-8.5 8.5,-8.5c4.69,0 8.5,3.81 8.5,8.5c0,4.53 -3.56,8.23 -8.03,8.48l-5.06,2.94c0.05,0.35 0.09,0.71 0.09,1.08c0,3.87 -3.13,7 -7,7c-3.55,0 -6.47,-2.64 -6.93,-6.06l-5.04,-1.61c0.06,0.2 0.13,0.4 0.2,0.59l4.39,1.4c0.63,3.54 3.75,6.18 7.38,6.18c4.14,0 7.5,-3.36 7.5,-7.5c0,-0.26 -0.02,-0.53 -0.05,-0.81l4.67,-2.72c4.71,-0.33 8.38,-4.24 8.38,-8.97c0,-4.96 -4.04,-9 -9,-9zM28.5,24c3.04,0 5.5,-2.46 5.5,-5.5c0,-3.04 -2.46,-5.5 -5.5,-5.5c-3.04,0 -5.5,2.46 -5.5,5.5c0,3.04 2.46,5.5 5.5,5.5zM23.89,20.44c-0.13,-0.3 -0.22,-0.61 -0.29,-0.93c-0.06,-0.33 -0.1,-0.67 -0.1,-1.01c0,-0.34 0.04,-0.68 0.1,-1.01c0.07,-0.32 0.16,-0.63 0.29,-0.93c0.06,-0.15 0.14,-0.3 0.21,-0.44c0.47,-0.85 1.17,-1.55 2.02,-2.02c0.14,-0.07 0.29,-0.15 0.44,-0.21c0.3,-0.13 0.61,-0.22 0.93,-0.29c0.33,-0.06 0.67,-0.1 1.01,-0.1c0.34,0 0.68,0.04 1.01,0.1c0.32,0.07 0.63,0.16 0.93,0.29c0.15,0.06 0.3,0.14 0.44,0.21c0.85,0.47 1.55,1.17 2.02,2.02c0.07,0.14 0.15,0.29 0.21,0.44c0.13,0.3 0.22,0.61 0.29,0.93c0.06,0.33 0.1,0.67 0.1,1.01c0,0.34 -0.04,0.68 -0.1,1.01c-0.07,0.32 -0.16,0.63 -0.29,0.93c-0.06,0.15 -0.14,0.3 -0.21,0.44c-0.47,0.85 -1.17,1.55 -2.02,2.02c-0.14,0.07 -0.29,0.15 -0.44,0.21c-0.3,0.13 -0.61,0.22 -0.93,0.29c-0.33,0.06 -0.67,0.1 -1.01,0.1c-0.34,0 -0.68,-0.04 -1.01,-0.1c-0.32,-0.07 -0.63,-0.16 -0.93,-0.29c-0.15,-0.06 -0.3,-0.14 -0.44,-0.21c-0.85,-0.47 -1.55,-1.17 -2.02,-2.02c-0.07,-0.14 -0.15,-0.29 -0.21,-0.44zM17,34c-0.17,0 -0.34,-0.02 -0.51,-0.05c-0.14,-0.03 -0.27,-0.07 -0.41,-0.11c-0.01,0 -0.02,0 -0.02,-0.01l-0.01,0.01l-3.75,-1.19c0.68,1.94 2.52,3.35 4.7,3.35c2.76,0 5,-2.24 5,-5c0,-2.76 -2.24,-5 -5,-5c-1.11,0 -2.13,0.38 -2.96,0.99l3.91,1.16c0,0 0.02,0.02 0.03,0.03c1.17,0.41 2.02,1.52 2.02,2.82c0,1.66 -1.34,3 -3,3zM20.5,31c0,-1.45 -0.91,-2.75 -2.28,-3.26l-0.01,-0.01l-0.12,-0.06l-2.79,-0.83c0.54,-0.22 1.11,-0.34 1.7,-0.34c2.48,0 4.5,2.02 4.5,4.5c0,2.48 -2.02,4.5 -4.5,4.5c-1.52,0 -2.91,-0.78 -3.73,-2.02l2.63,0.84l0.47,0.15l0.01,-0.03h0.03c0.2,0.04 0.4,0.06 0.59,0.06c1.93,0 3.5,-1.57 3.5,-3.5zM17,26c-1.11,0 -2.13,0.38 -2.96,0.99l3.91,1.16c0,0 0.02,0.02 0.03,0.03c1.17,0.41 2.02,1.52 2.02,2.82c0,1.66 -1.34,3 -3,3c-0.17,0 -0.34,-0.02 -0.51,-0.05c-0.14,-0.03 -0.27,-0.07 -0.41,-0.11c-0.01,0 -0.02,0 -0.02,-0.01l-0.01,0.01l-3.75,-1.19c0.68,1.94 2.52,3.35 4.7,3.35c2.76,0 5,-2.24 5,-5c0,-2.76 -2.24,-5 -5,-5zM17,35.5c-1.52,0 -2.91,-0.78 -3.73,-2.02l2.63,0.84l0.47,0.15l0.01,-0.03h0.03c0.2,0.04 0.4,0.06 0.59,0.06c1.93,0 3.5,-1.57 3.5,-3.5c0,-1.45 -0.91,-2.75 -2.28,-3.26l-0.01,-0.01l-0.12,-0.06l-2.79,-0.83c0.54,-0.22 1.11,-0.34 1.7,-0.34c2.48,0 4.5,2.02 4.5,4.5c0,2.48 -2.02,4.5 -4.5,4.5zM28.5,13c-3.04,0 -5.5,2.46 -5.5,5.5c0,3.04 2.46,5.5 5.5,5.5c3.04,0 5.5,-2.46 5.5,-5.5c0,-3.04 -2.46,-5.5 -5.5,-5.5zM33.11,20.44c-0.06,0.15 -0.14,0.3 -0.21,0.44c-0.47,0.85 -1.17,1.55 -2.02,2.02c-0.14,0.07 -0.29,0.15 -0.44,0.21c-0.3,0.13 -0.61,0.22 -0.93,0.29c-0.33,0.06 -0.67,0.1 -1.01,0.1c-0.34,0 -0.68,-0.04 -1.01,-0.1c-0.32,-0.07 -0.63,-0.16 -0.93,-0.29c-0.15,-0.06 -0.3,-0.14 -0.44,-0.21c-0.85,-0.47 -1.55,-1.17 -2.02,-2.02c-0.07,-0.14 -0.15,-0.29 -0.21,-0.44c-0.13,-0.3 -0.22,-0.61 -0.29,-0.93c-0.06,-0.33 -0.1,-0.67 -0.1,-1.01c0,-0.34 0.04,-0.68 0.1,-1.01c0.07,-0.32 0.16,-0.63 0.29,-0.93c0.06,-0.15 0.14,-0.3 0.21,-0.44c0.47,-0.85 1.17,-1.55 2.02,-2.02c0.14,-0.07 0.29,-0.15 0.44,-0.21c0.3,-0.13 0.61,-0.22 0.93,-0.29c0.33,-0.06 0.67,-0.1 1.01,-0.1c0.34,0 0.68,0.04 1.01,0.1c0.32,0.07 0.63,0.16 0.93,0.29c0.15,0.06 0.3,0.14 0.44,0.21c0.85,0.47 1.55,1.17 2.02,2.02c0.07,0.14 0.15,0.29 0.21,0.44c0.13,0.3 0.22,0.61 0.29,0.93c0.06,0.33 0.1,0.67 0.1,1.01c0,0.34 -0.04,0.68 -0.1,1.01c-0.07,0.32 -0.16,0.63 -0.29,0.93zM28.5,13c-3.04,0 -5.5,2.46 -5.5,5.5c0,3.04 2.46,5.5 5.5,5.5c3.04,0 5.5,-2.46 5.5,-5.5c0,-3.04 -2.46,-5.5 -5.5,-5.5zM33.11,20.44c-0.06,0.15 -0.14,0.3 -0.21,0.44c-0.47,0.85 -1.17,1.55 -2.02,2.02c-0.14,0.07 -0.29,0.15 -0.44,0.21c-0.3,0.13 -0.61,0.22 -0.93,0.29c-0.33,0.06 -0.67,0.1 -1.01,0.1c-0.34,0 -0.68,-0.04 -1.01,-0.1c-0.32,-0.07 -0.63,-0.16 -0.93,-0.29c-0.15,-0.06 -0.3,-0.14 -0.44,-0.21c-0.85,-0.47 -1.55,-1.17 -2.02,-2.02c-0.07,-0.14 -0.15,-0.29 -0.21,-0.44c-0.13,-0.3 -0.22,-0.61 -0.29,-0.93c-0.06,-0.33 -0.1,-0.67 -0.1,-1.01c0,-0.34 0.04,-0.68 0.1,-1.01c0.07,-0.32 0.16,-0.63 0.29,-0.93c0.06,-0.15 0.14,-0.3 0.21,-0.44c0.47,-0.85 1.17,-1.55 2.02,-2.02c0.14,-0.07 0.29,-0.15 0.44,-0.21c0.3,-0.13 0.61,-0.22 0.93,-0.29c0.33,-0.06 0.67,-0.1 1.01,-0.1c0.34,0 0.68,0.04 1.01,0.1c0.32,0.07 0.63,0.16 0.93,0.29c0.15,0.06 0.3,0.14 0.44,0.21c0.85,0.47 1.55,1.17 2.02,2.02c0.07,0.14 0.15,0.29 0.21,0.44c0.13,0.3 0.22,0.61 0.29,0.93c0.06,0.33 0.1,0.67 0.1,1.01c0,0.34 -0.04,0.68 -0.1,1.01c-0.07,0.32 -0.16,0.63 -0.29,0.93zM17,26c-1.11,0 -2.13,0.38 -2.96,0.99l3.91,1.16c0,0 0.02,0.02 0.03,0.03c1.17,0.41 2.02,1.52 2.02,2.82c0,1.66 -1.34,3 -3,3c-0.17,0 -0.34,-0.02 -0.51,-0.05c-0.14,-0.03 -0.27,-0.07 -0.41,-0.11c-0.01,0 -0.02,0 -0.02,-0.01l-0.01,0.01l-3.75,-1.19c0.68,1.94 2.52,3.35 4.7,3.35c2.76,0 5,-2.24 5,-5c0,-2.76 -2.24,-5 -5,-5zM17,35.5c-1.52,0 -2.91,-0.78 -3.73,-2.02l2.63,0.84l0.47,0.15l0.01,-0.03h0.03c0.2,0.04 0.4,0.06 0.59,0.06c1.93,0 3.5,-1.57 3.5,-3.5c0,-1.45 -0.91,-2.75 -2.28,-3.26l-0.01,-0.01l-0.12,-0.06l-2.79,-0.83c0.54,-0.22 1.11,-0.34 1.7,-0.34c2.48,0 4.5,2.02 4.5,4.5c0,2.48 -2.02,4.5 -4.5,4.5z" fill="#000000" opacity="0.07"></path><path d="M28.5,13c-3.04,0 -5.5,2.46 -5.5,5.5c0,3.04 2.46,5.5 5.5,5.5c3.04,0 5.5,-2.46 5.5,-5.5c0,-3.04 -2.46,-5.5 -5.5,-5.5zM33.11,20.44c-0.06,0.15 -0.14,0.3 -0.21,0.44c-0.47,0.85 -1.17,1.55 -2.02,2.02c-0.14,0.07 -0.29,0.15 -0.44,0.21c-0.3,0.13 -0.61,0.22 -0.93,0.29c-0.33,0.06 -0.67,0.1 -1.01,0.1c-0.34,0 -0.68,-0.04 -1.01,-0.1c-0.32,-0.07 -0.63,-0.16 -0.93,-0.29c-0.15,-0.06 -0.3,-0.14 -0.44,-0.21c-0.85,-0.47 -1.55,-1.17 -2.02,-2.02c-0.07,-0.14 -0.15,-0.29 -0.21,-0.44c-0.13,-0.3 -0.22,-0.61 -0.29,-0.93c-0.06,-0.33 -0.1,-0.67 -0.1,-1.01c0,-0.34 0.04,-0.68 0.1,-1.01c0.07,-0.32 0.16,-0.63 0.29,-0.93c0.06,-0.15 0.14,-0.3 0.21,-0.44c0.47,-0.85 1.17,-1.55 2.02,-2.02c0.14,-0.07 0.29,-0.15 0.44,-0.21c0.3,-0.13 0.61,-0.22 0.93,-0.29c0.33,-0.06 0.67,-0.1 1.01,-0.1c0.34,0 0.68,0.04 1.01,0.1c0.32,0.07 0.63,0.16 0.93,0.29c0.15,0.06 0.3,0.14 0.44,0.21c0.85,0.47 1.55,1.17 2.02,2.02c0.07,0.14 0.15,0.29 0.21,0.44c0.13,0.3 0.22,0.61 0.29,0.93c0.06,0.33 0.1,0.67 0.1,1.01c0,0.34 -0.04,0.68 -0.1,1.01c-0.07,0.32 -0.16,0.63 -0.29,0.93zM28.5,13c-3.04,0 -5.5,2.46 -5.5,5.5c0,3.04 2.46,5.5 5.5,5.5c3.04,0 5.5,-2.46 5.5,-5.5c0,-3.04 -2.46,-5.5 -5.5,-5.5zM33.11,20.44c-0.06,0.15 -0.14,0.3 -0.21,0.44c-0.47,0.85 -1.17,1.55 -2.02,2.02c-0.14,0.07 -0.29,0.15 -0.44,0.21c-0.3,0.13 -0.61,0.22 -0.93,0.29c-0.33,0.06 -0.67,0.1 -1.01,0.1c-0.34,0 -0.68,-0.04 -1.01,-0.1c-0.32,-0.07 -0.63,-0.16 -0.93,-0.29c-0.15,-0.06 -0.3,-0.14 -0.44,-0.21c-0.85,-0.47 -1.55,-1.17 -2.02,-2.02c-0.07,-0.14 -0.15,-0.29 -0.21,-0.44c-0.13,-0.3 -0.22,-0.61 -0.29,-0.93c-0.06,-0.33 -0.1,-0.67 -0.1,-1.01c0,-0.34 0.04,-0.68 0.1,-1.01c0.07,-0.32 0.16,-0.63 0.29,-0.93c0.06,-0.15 0.14,-0.3 0.21,-0.44c0.47,-0.85 1.17,-1.55 2.02,-2.02c0.14,-0.07 0.29,-0.15 0.44,-0.21c0.3,-0.13 0.61,-0.22 0.93,-0.29c0.33,-0.06 0.67,-0.1 1.01,-0.1c0.34,0 0.68,0.04 1.01,0.1c0.32,0.07 0.63,0.16 0.93,0.29c0.15,0.06 0.3,0.14 0.44,0.21c0.85,0.47 1.55,1.17 2.02,2.02c0.07,0.14 0.15,0.29 0.21,0.44c0.13,0.3 0.22,0.61 0.29,0.93c0.06,0.33 0.1,0.67 0.1,1.01c0,0.34 -0.04,0.68 -0.1,1.01c-0.07,0.32 -0.16,0.63 -0.29,0.93zM28.5,13c-3.04,0 -5.5,2.46 -5.5,5.5c0,3.04 2.46,5.5 5.5,5.5c3.04,0 5.5,-2.46 5.5,-5.5c0,-3.04 -2.46,-5.5 -5.5,-5.5zM33.11,20.44c-0.06,0.15 -0.14,0.3 -0.21,0.44c-0.47,0.85 -1.17,1.55 -2.02,2.02c-0.14,0.07 -0.29,0.15 -0.44,0.21c-0.3,0.13 -0.61,0.22 -0.93,0.29c-0.33,0.06 -0.67,0.1 -1.01,0.1c-0.34,0 -0.68,-0.04 -1.01,-0.1c-0.32,-0.07 -0.63,-0.16 -0.93,-0.29c-0.15,-0.06 -0.3,-0.14 -0.44,-0.21c-0.85,-0.47 -1.55,-1.17 -2.02,-2.02c-0.07,-0.14 -0.15,-0.29 -0.21,-0.44c-0.13,-0.3 -0.22,-0.61 -0.29,-0.93c-0.06,-0.33 -0.1,-0.67 -0.1,-1.01c0,-0.34 0.04,-0.68 0.1,-1.01c0.07,-0.32 0.16,-0.63 0.29,-0.93c0.06,-0.15 0.14,-0.3 0.21,-0.44c0.47,-0.85 1.17,-1.55 2.02,-2.02c0.14,-0.07 0.29,-0.15 0.44,-0.21c0.3,-0.13 0.61,-0.22 0.93,-0.29c0.33,-0.06 0.67,-0.1 1.01,-0.1c0.34,0 0.68,0.04 1.01,0.1c0.32,0.07 0.63,0.16 0.93,0.29c0.15,0.06 0.3,0.14 0.44,0.21c0.85,0.47 1.55,1.17 2.02,2.02c0.07,0.14 0.15,0.29 0.21,0.44c0.13,0.3 0.22,0.61 0.29,0.93c0.06,0.33 0.1,0.67 0.1,1.01c0,0.34 -0.04,0.68 -0.1,1.01c-0.07,0.32 -0.16,0.63 -0.29,0.93z" fill="#000000" opacity="0.07"></path></g></g></svg>