<svg version="1.1" xmlns="http://www.w3.org/2000/svg" xmlns:xlink="http://www.w3.org/1999/xlink" viewBox="0,0,256,256"><defs><linearGradient x1="24" y1="6.459" x2="24" y2="46.991" gradientUnits="userSpaceOnUse" id="color-1"><stop offset="0" stop-color="#2aa4f4"></stop><stop offset="1" stop-color="#007ad9"></stop></linearGradient><radialGradient cx="24" cy="24" r="16" gradientUnits="userSpaceOnUse" id="color-2"><stop offset="0.671" stop-color="#000000"></stop><stop offset="1" stop-color="#000000" stop-opacity="0"></stop></radialGradient><linearGradient x1="37" y1="24" x2="11" y2="24" gradientUnits="userSpaceOnUse" id="color-3"><stop offset="0" stop-color="#2aa4f4"></stop><stop offset="1" stop-color="#007ad9"></stop></linearGradient></defs><g fill="none" fill-rule="nonzero" stroke="none" stroke-width="1" stroke-linecap="butt" stroke-linejoin="miter" stroke-miterlimit="10" stroke-dasharray="" stroke-dashoffset="0" font-family="none" font-weight="none" font-size="none" text-anchor="none" style="mix-blend-mode: normal"><g transform="scale(5.33333,5.33333)"><path d="M35,42h-22c-3.866,0 -7,-3.134 -7,-7v-22c0,-3.866 3.134,-7 7,-7h22c3.866,0 7,3.134 7,7v22c0,3.866 -3.134,7 -7,7z" fill="url(#color-1)"></path><circle cx="24" cy="24" r="16" fill="url(#color-2)" opacity="0.15"></circle><circle cx="24" cy="24" r="14" fill="#ffffff"></circle><path d="M37,24l-9,-5l1,3h-10l1,-3l-9,5l9,5l-1,-3h10l-1,3z" fill="url(#color-3)"></path></g></g></svg>