<svg version="1.1" xmlns="http://www.w3.org/2000/svg" xmlns:xlink="http://www.w3.org/1999/xlink" width="128px" height="128px" viewBox="0,0,256,256"><g fill="none" fill-rule="nonzero" stroke="none" stroke-width="1" stroke-linecap="butt" stroke-linejoin="miter" stroke-miterlimit="10" stroke-dasharray="" stroke-dashoffset="0" font-family="none" font-weight="none" font-size="none" text-anchor="none" style="mix-blend-mode: normal"><g transform="scale(2,2)"><path d="M110.8,29.4l-91.8,24.6l-2.6,-9.7c-1.4,-5.3 1.7,-10.8 7.1,-12.2l72.4,-19.4c5.3,-1.4 10.8,1.7 12.2,7.1z" fill="#3f4750"></path><path d="M109.9,29.6l-24.4,-14.1l-9.4,2.5c0.3,1 0.9,1.9 1.9,2.4l21,12.1l-18,4.8l-24.5,-14l-9.3,2.5c0.3,1 0.9,1.9 1.9,2.4l21,12.1l-18,4.8l-24.6,-14.1l-4,1.1c-1.8,0.5 -3.4,1.5 -4.7,2.8c0.3,0.4 0.7,0.8 1.2,1.1l21,12.1zM114,54h-95v60c0,5.5 4.5,10 10,10h75c5.5,0 10,-4.5 10,-10z" fill="#ffffff"></path><path d="M19,54h95v20h-95z" fill="#3f4750"></path><path d="M93.2,74l20,-20h-11.3l-20,20h-18.7l20,-20h-11.4l-20,20h-18.6l20,-20h-11.4l-20,20h-2.8v2.8v1.2v0v5.8v30.2c0,5.5 4.5,10 10,10h75c5.5,0 10,-4.5 10,-10v-40z" fill="#ffffff"></path><path d="M113.8,54.2l-0.2,-0.2h-7.1c2.7,0 9.2,2 7.3,0.2z" fill="#ffffff"></path><path d="M104,127h-75c-7.2,0 -13,-5.8 -13,-13v-52.5c0,-1.7 1.3,-3 3,-3c1.7,0 3,1.3 3,3v52.5c0,3.9 3.1,7 7,7h75c3.9,0 7,-3.1 7,-7v-57h-84c-1.7,0 -3,-1.3 -3,-3c0,-1.7 1.3,-3 3,-3h87c1.7,0 3,1.3 3,3v60c0,7.2 -5.8,13 -13,13z" fill="#3f4750"></path><g fill="#3f4750"><path d="M19,57c-1.3,0 -2.5,-0.9 -2.9,-2.2l-2.6,-9.7c-1.9,-6.9 2.3,-14.1 9.2,-15.9l72.5,-19.4c6.9,-1.9 14.1,2.3 15.9,9.2l2.6,9.7c0.2,0.8 0.1,1.6 -0.3,2.3c-0.4,0.7 -1.1,1.2 -1.8,1.4l-91.8,24.5c-0.3,0.1 -0.5,0.1 -0.8,0.1zM98.5,15.3c-0.6,0 -1.2,0.1 -1.8,0.2l-72.4,19.5c-3.7,1 -5.9,4.8 -4.9,8.6l1.8,6.8l86,-23l-1.8,-6.8c-1,-3.2 -3.8,-5.3 -6.9,-5.3z"></path></g><g fill="#ffffff"><path d="M19,46c-4.41828,0 -8,3.58172 -8,8c0,4.41828 3.58172,8 8,8c4.41828,0 8,-3.58172 8,-8c0,-4.41828 -3.58172,-8 -8,-8z"></path></g><g fill="#3f4750"><path d="M19,65c-6.1,0 -11,-4.9 -11,-11c0,-6.1 4.9,-11 11,-11c6.1,0 11,4.9 11,11c0,6.1 -4.9,11 -11,11zM19,49c-2.8,0 -5,2.2 -5,5c0,2.8 2.2,5 5,5c2.8,0 5,-2.2 5,-5c0,-2.8 -2.2,-5 -5,-5z"></path></g></g></g></svg>