<svg version="1.1" xmlns="http://www.w3.org/2000/svg" xmlns:xlink="http://www.w3.org/1999/xlink" viewBox="0,0,256,256"><g fill="none" fill-rule="nonzero" stroke="none" stroke-width="1" stroke-linecap="butt" stroke-linejoin="miter" stroke-miterlimit="10" stroke-dasharray="" stroke-dashoffset="0" font-family="none" font-weight="none" font-size="none" text-anchor="none" style="mix-blend-mode: normal"><g transform="scale(5.33333,5.33333)"><path d="M36,6h-24c-3.314,0 -6,2.686 -6,6v24c0,3.314 2.686,6 6,6h24c3.314,0 6,-2.686 6,-6v-24c0,-3.314 -2.686,-6 -6,-6z" fill="#d6742d"></path><path d="M36,40h-24c-2.209,0 -4,-1.791 -4,-4v-24c0,-2.209 1.791,-4 4,-4h24c2.209,0 4,1.791 4,4v24c0,2.209 -1.791,4 -4,4z" fill="#ca4e2a"></path><path d="M26.346,31.999h-2.129c-0.23,0 -0.431,-0.157 -0.486,-0.381l-0.735,-3.007c-0.055,-0.224 -0.255,-0.381 -0.486,-0.381h-3.816c-0.231,0 -0.432,0.158 -0.486,0.382l-0.727,3.005c-0.054,0.224 -0.255,0.382 -0.486,0.382h-2.107c-0.331,0 -0.57,-0.315 -0.482,-0.634l4.433,-15.944c0.06,-0.216 0.257,-0.366 0.482,-0.366h2.694c0.226,0 0.423,0.151 0.483,0.369l4.33,15.944c0.087,0.318 -0.153,0.631 -0.482,0.631zM21.598,25.3c0.324,0 0.563,-0.304 0.486,-0.619l-1.239,-5.078c-0.102,-0.425 -0.174,-0.934 -0.216,-1.524h-0.072c-0.03,0.497 -0.105,0.989 -0.226,1.478l-1.256,5.124c-0.077,0.315 0.161,0.619 0.486,0.619z" fill="#ffffff"></path><path d="M30.357,17.986c-0.481,0 -0.875,-0.188 -1.182,-0.562c-0.307,-0.374 -0.46,-0.833 -0.46,-1.377c0,-0.559 0.153,-1.016 0.46,-1.37c0.307,-0.354 0.7,-0.532 1.182,-0.532c0.487,0 0.883,0.178 1.187,0.532c0.304,0.354 0.456,0.812 0.456,1.37c0,0.567 -0.152,1.032 -0.456,1.395c-0.304,0.363 -0.7,0.544 -1.187,0.544zM31.265,31.999h-1.852c-0.276,0 -0.5,-0.224 -0.5,-0.5v-11.099c0,-0.276 0.224,-0.5 0.5,-0.5h1.852c0.276,0 0.5,0.224 0.5,0.5v11.1c0,0.275 -0.223,0.499 -0.5,0.499z" fill="#ffffff"></path></g></g></svg>