<svg version="1.1" xmlns="http://www.w3.org/2000/svg" xmlns:xlink="http://www.w3.org/1999/xlink" width="128px" height="128px" viewBox="0,0,256,256"><g fill="none" fill-rule="nonzero" stroke="none" stroke-width="1" stroke-linecap="butt" stroke-linejoin="miter" stroke-miterlimit="10" stroke-dasharray="" stroke-dashoffset="0" font-family="none" font-weight="none" font-size="none" text-anchor="none" style="mix-blend-mode: normal"><g transform="scale(2,2)"><path d="M86,9h-54c-5.5,0 -10,4.5 -10,10v90c0,5.5 4.5,10 10,10h64c5.5,0 10,-4.5 10,-10v-80c0,-11 -9,-20 -20,-20z" fill="#ffffff"></path><path d="M32,104c-5.52285,0 -10,4.47715 -10,10c0,5.52285 4.47715,10 10,10c5.52285,0 10,-4.47715 10,-10c0,-5.52285 -4.47715,-10 -10,-10z" fill="#ffffff"></path><path d="M42,117c-1.7,0 -3,-1.3 -3,-3v-48c0,-1.7 1.3,-3 3,-3c1.7,0 3,1.3 3,3v48c0,1.7 -1.3,3 -3,3z" fill="#5faee9"></path><path d="M32,127c-7.2,0 -13,-5.8 -13,-13c0,-7.2 5.8,-13 13,-13c7.2,0 13,5.8 13,13c0,7.2 -5.8,13 -13,13zM32,107c-3.9,0 -7,3.1 -7,7c0,3.9 3.1,7 7,7c3.9,0 7,-3.1 7,-7c0,-3.9 -3.1,-7 -7,-7zM77,107c-1.7,0 -3,-1.3 -3,-3v-44.3l-31.2,9.2c-1.6,0.5 -3.3,-0.4 -3.7,-2c-0.5,-1.6 0.4,-3.3 2,-3.7l35,-10.3c0.9,-0.3 1.9,-0.1 2.6,0.5c0.8,0.6 1.2,1.5 1.2,2.4v48.2c0.1,1.7 -1.2,3 -2.9,3z" fill="#5faee9"></path><path d="M67,117c-7.2,0 -13,-5.8 -13,-13c0,-7.2 5.8,-13 13,-13c7.2,0 13,5.8 13,13c0,7.2 -5.8,13 -13,13zM67,97c-3.9,0 -7,3.1 -7,7c0,3.9 3.1,7 7,7c3.9,0 7,-3.1 7,-7c0,-3.9 -3.1,-7 -7,-7z" fill="#5faee9"></path><g fill="#444b54"><path d="M106,39v0c-1.7,0 -3,1.3 -3,3l-0.1,67.2c0,3.8 -3.1,6.8 -6.9,6.8c-1.7,0 -3,1.3 -3,3c0,1.7 1.3,3 3,3c7.1,0 12.8,-5.8 12.9,-12.8l0.1,-67.2c0,-1.7 -1.4,-3 -3,-3zM22,89c1.7,0 3,-1.3 3,-3v-67c0,-3.9 3.1,-7 7,-7h51v7c0,7.2 5.8,13 13,13h9.6c0.1,0 0.2,0 0.4,0v0c1.2,0 2.3,-0.8 2.8,-1.8c0.2,-0.4 0.3,-0.8 0.3,-1.2c0,-0.1 0,-0.3 0,-0.4c-0.1,-6 -2.5,-11.6 -6.7,-15.9c-4.5,-4.3 -10.2,-6.7 -16.4,-6.7v0v0v0h-54c-7.2,0 -13,5.8 -13,13v67c0,1.7 1.3,3 3,3zM102.7,26h-6.7c-3.9,0 -7,-3.1 -7,-7v-6.7c3.4,0.6 6.5,2.2 9,4.7c2.5,2.5 4.1,5.6 4.7,9z"></path></g></g></g></svg>