<svg version="1.1" xmlns="http://www.w3.org/2000/svg" xmlns:xlink="http://www.w3.org/1999/xlink" viewBox="0,0,256,256"><g fill="none" fill-rule="nonzero" stroke="none" stroke-width="1" stroke-linecap="butt" stroke-linejoin="miter" stroke-miterlimit="10" stroke-dasharray="" stroke-dashoffset="0" font-family="none" font-weight="none" font-size="none" text-anchor="none" style="mix-blend-mode: normal"><g transform="scale(2,2)"><path d="M109,109h-80c-5.5,0 -10,-4.5 -10,-10v-70c0,-5.5 4.5,-10 10,-10l50.3,10l29.7,-10c5.5,0 10,4.5 10,10v70c0,5.5 -4.5,10 -10,10z" fill="#c3dbea"></path><path d="M90.9,89h-70.1c-5.7,0 -9.5,-5.7 -7.4,-11l5.6,-14v-35c0,-5.5 4.5,-10 10,-10h70c5.5,0 10,4.5 10,10v35l-7,17.5c-1.8,4.5 -6.2,7.5 -11.1,7.5z" fill="#ffffff"></path><path d="M99,112h-70c-7.2,0 -13,-5.8 -13,-13c0,-1.7 1.3,-3 3,-3c1.7,0 3,1.3 3,3c0,3.9 3.1,7 7,7h70c3.9,0 7,-3.1 7,-7v-10c0,-1.7 1.3,-3 3,-3c1.7,0 3,1.3 3,3v10c0,7.2 -5.8,13 -13,13z" fill="#444b54"></path><path d="M99,16h-2v-2c0,-4.4 -3.6,-8 -8,-8c-4.4,0 -8,3.6 -8,8v10c0,4.4 3.6,8 8,8c1.7,0 3,-1.3 3,-3c0,-1.7 -1.3,-3 -3,-3c-1.1,0 -2,-0.9 -2,-2v-10c0,-1.1 0.9,-2 2,-2c1.1,0 2,0.9 2,2v5c0,1.7 1.3,3 3,3h5c3.9,0 7,3.1 7,7v27.3c0,4.7 -0.9,9.4 -2.6,13.7l-4.1,10.3c-1.4,3.4 -4.7,5.7 -8.4,5.7h-70.1c-1.7,0 -3.2,-0.8 -4.1,-2.2c-0.9,-1.4 -1.1,-3.1 -0.5,-4.7l2.8,-6.9c2,-5.1 3.1,-10.5 3.1,-16v-27.2c0,-3.9 3.1,-7 7,-7h5c1.7,0 3,-1.3 3,-3c0,-1.7 -1.3,-3 -3,-3h-5c-7.2,0 -13,5.8 -13,13v27.3c0,4.7 -0.9,9.4 -2.6,13.7l-2.8,6.9c-1.4,3.4 -0.9,7.2 1.1,10.3c2,3 5.5,4.8 9.1,4.8h70.1c6.2,0 11.6,-3.7 13.9,-9.4l4.1,-10.3c2,-5.1 3.1,-10.5 3.1,-16v-27.3c-0.1,-7.2 -5.9,-13 -13.1,-13z" fill="#444b54"></path><path d="M49,32c1.7,0 3,-1.3 3,-3c0,-1.7 -1.3,-3 -3,-3c-1.1,0 -2,-0.9 -2,-2v-10c0,-1.1 0.9,-2 2,-2c1.1,0 2,0.9 2,2v5c0,1.7 1.3,3 3,3h20c1.7,0 3,-1.3 3,-3c0,-1.7 -1.3,-3 -3,-3h-17v-2c0,-4.4 -3.6,-8 -8,-8c-4.4,0 -8,3.6 -8,8v10c0,4.4 3.6,8 8,8z" fill="#444b54"></path><path d="M44,49v0c-2.8,0 -5,-2.2 -5,-5v0c0,-2.8 2.2,-5 5,-5v0c2.8,0 5,2.2 5,5v0c0,2.8 -2.2,5 -5,5zM64,49v0c-2.8,0 -5,-2.2 -5,-5v0c0,-2.8 2.2,-5 5,-5v0c2.8,0 5,2.2 5,5v0c0,2.8 -2.2,5 -5,5zM84,49v0c-2.8,0 -5,-2.2 -5,-5v0c0,-2.8 2.2,-5 5,-5v0c2.8,0 5,2.2 5,5v0c0,2.8 -2.2,5 -5,5zM44,64v0c-2.8,0 -5,-2.2 -5,-5v0c0,-2.8 2.2,-5 5,-5v0c2.8,0 5,2.2 5,5v0c0,2.8 -2.2,5 -5,5zM64,64v0c-2.8,0 -5,-2.2 -5,-5v0c0,-2.8 2.2,-5 5,-5v0c2.8,0 5,2.2 5,5v0c0,2.8 -2.2,5 -5,5z" fill="#c3dbea"></path><path d="M84,64v0c-2.8,0 -5,-2.2 -5,-5v0c0,-2.8 2.2,-5 5,-5v0c2.8,0 5,2.2 5,5v0c0,2.8 -2.2,5 -5,5z" fill="#ff5576"></path><path d="M80.1,78.5v0c-2.8,0 -4.6,-2 -4.1,-4.5v0c0.5,-2.5 3.1,-4.5 5.9,-4.5v0c2.8,0 4.6,2 4.1,4.5v0c-0.5,2.5 -3.1,4.5 -5.9,4.5zM60.1,78.5v0c-2.8,0 -4.6,-2 -4.1,-4.5v0c0.5,-2.5 3.1,-4.5 5.9,-4.5v0c2.8,0 4.6,2 4.1,4.5v0c-0.5,2.5 -3.1,4.5 -5.9,4.5z" fill="#c3dbea"></path><g fill="#c3dbea"><path d="M40.1,78.5v0c-2.8,0 -4.6,-2 -4.1,-4.5v0c0.5,-2.5 3.1,-4.5 5.9,-4.5v0c2.8,0 4.6,2 4.1,4.5v0c-0.5,2.5 -3.1,4.5 -5.9,4.5z"></path></g></g></g></svg>