<svg version="1.1" xmlns="http://www.w3.org/2000/svg" xmlns:xlink="http://www.w3.org/1999/xlink" width="128px" height="128px" viewBox="0,0,256,256"><g fill="none" fill-rule="nonzero" stroke="none" stroke-width="1" stroke-linecap="butt" stroke-linejoin="miter" stroke-miterlimit="10" stroke-dasharray="" stroke-dashoffset="0" font-family="none" font-weight="none" font-size="none" text-anchor="none" style="mix-blend-mode: normal"><g transform="scale(2,2)"><path d="M94.5,112h-61c-5.5,0 -10,-4.5 -10,-10v-80c0,-5.5 4.5,-10 10,-10h61c5.5,0 10,4.5 10,10v80c0,5.5 -4.5,10 -10,10z" fill="#fffdfd"></path><path d="M33.5,22h61v15h-61zM88.5,57h-51c-1.7,0 -3,-1.3 -3,-3c0,-1.7 1.3,-3 3,-3h51c1.7,0 3,1.3 3,3c0,1.7 -1.3,3 -3,3zM88.5,72h-51c-1.7,0 -3,-1.3 -3,-3c0,-1.7 1.3,-3 3,-3h51c1.7,0 3,1.3 3,3c0,1.7 -1.3,3 -3,3zM64,87h-26.5c-1.7,0 -3,-1.3 -3,-3c0,-1.7 1.3,-3 3,-3h26.5c1.7,0 3,1.3 3,3c0,1.7 -1.3,3 -3,3z" fill="#c7d7e2"></path><path d="M94.5,115h-61c-7.2,0 -13,-5.8 -13,-13v-80c0,-7.2 5.8,-13 13,-13h61c7.2,0 13,5.8 13,13v80c0,7.2 -5.8,13 -13,13zM33.5,15c-3.9,0 -7,3.1 -7,7v80c0,3.9 3.1,7 7,7h61c3.9,0 7,-3.1 7,-7v-80c0,-3.9 -3.1,-7 -7,-7z" fill="#454b54"></path></g></g></svg>