<svg version="1.1" xmlns="http://www.w3.org/2000/svg" xmlns:xlink="http://www.w3.org/1999/xlink" viewBox="0,0,256,256"><g fill="none" fill-rule="nonzero" stroke="none" stroke-width="1" stroke-linecap="butt" stroke-linejoin="miter" stroke-miterlimit="10" stroke-dasharray="" stroke-dashoffset="0" font-family="none" font-weight="none" font-size="none" text-anchor="none" style="mix-blend-mode: normal"><g transform="scale(2,2)"><path d="M19,114v-90c0,-5.5 4.5,-10 10,-10h70c11,0 20,9 20,20v80c0,2.8 -2.2,5 -5,5h-90c-2.8,0 -5,-2.2 -5,-5z" fill="#ffffff"></path><path d="M119,34h-10c-5.5,0 -10,-4.5 -10,-10v-10v0c11,0 20,9 20,20z" fill="#ffffff"></path><path d="M122,34c0,-0.1 0,-0.3 0,-0.4c-0.1,-6 -2.5,-11.6 -6.7,-15.9c-4.4,-4.3 -10.1,-6.7 -16.3,-6.7v0h-70c-7.2,0 -13,5.8 -13,13v7c0,1.7 1.3,3 3,3c1.7,0 3,-1.3 3,-3v-7c0,-3.9 3.1,-7 7,-7h67v7c0,7.2 5.8,13 13,13h9.6c0.1,0 0.2,0 0.4,0v0c1.2,0 2.3,-0.8 2.8,-1.8c0.1,-0.4 0.2,-0.8 0.2,-1.2zM102,24v-6.7c3.4,0.6 6.5,2.2 9,4.7c2.5,2.5 4.1,5.6 4.7,9h-6.7c-3.9,0 -7,-3.1 -7,-7z" fill="#444b54"></path><path d="M100.7,57h-33.5c-5.2,0 -10,-2.4 -13.2,-6.5v0c-3.2,-4.1 -8,-6.5 -13.2,-6.5h-26.8c-2.8,0 -5,2.2 -5,5v65c0,2.8 2.2,5 5,5h91.7v-57c0,-2.8 -2.3,-5 -5,-5z" fill="#ffffff"></path><path d="M39,114c0,2.8 2.2,5 5,5h61.7v-10h-61.7c-2.8,0 -5,2.2 -5,5z" fill="#fbc736"></path><path d="M122,53.7v-6.7c0,-1.7 -1.3,-3 -3,-3v0c-1.7,0 -3,1.4 -3,3v17v48.3c0,2 -1.6,3.7 -3.7,3.7c-2,0 -3.7,-1.6 -3.7,-3.7v-50.3c0,-4.4 -3.6,-8 -8,-8h-33.4c-4.2,0 -8.3,-2 -10.8,-5.3c-3.7,-4.8 -9.5,-7.7 -15.6,-7.7h-26.8c-4.4,0 -8,3.6 -8,8v65c0,4.4 3.6,8 8,8h98.3c5.3,0 9.7,-4.3 9.7,-9.7v-58.3c0,-0.1 0,-0.2 0,-0.3zM14,116c-1.1,0 -2,-0.9 -2,-2v-65c0,-1.1 0.9,-2 2,-2h26.8c4.2,0 8.3,2 10.8,5.3c3.7,4.8 9.5,7.7 15.6,7.7h33.5c1.1,0 2,0.9 2,2v50.3c0,1.3 0.3,2.5 0.7,3.7z" fill="#444b54"></path></g></g></svg>