<svg xmlns="http://www.w3.org/2000/svg" xmlns:xlink="http://www.w3.org/1999/xlink" viewBox="0,0,256,256" width="128px" height="128px" fill-rule="nonzero"><g fill="none" fill-rule="nonzero" stroke="none" stroke-width="1" stroke-linecap="butt" stroke-linejoin="miter" stroke-miterlimit="10" stroke-dasharray="" stroke-dashoffset="0" font-family="none" font-weight="none" font-size="none" text-anchor="none" style="mix-blend-mode: normal"><g transform="scale(2,2)"><path d="M100.2,104h-81.2c-5.5,0 -10,-4.5 -10,-10v-65h98.7c6,0 10.7,5.3 9.9,11.2l-7.5,55c-0.6,5 -4.9,8.8 -9.9,8.8z" fill="#cfe0ff"></path><path d="M104,104h-85c-5.5,0 -10,-4.5 -10,-10v-70h24.6c3.3,0 6.5,1.7 8.3,4.5l4.1,6.1c1.9,2.8 5,4.5 8.3,4.5h34.7c5.5,0 10,4.5 10,10v41v1.9c0,4.5 1.8,8.8 5,12z" fill="#ffffff"></path><path d="M100.2,107h-81.2c-7.2,0 -13,-5.8 -13,-13v-70c0,-1.7 1.3,-3 3,-3h24.6c4.4,0 8.4,2.2 10.8,5.8l4.1,6.1c1.3,2 3.5,3.1 5.8,3.1h34.7c7.2,0 13,5.8 13,13v35c0,1.7 -1.3,3 -3,3c-1.7,0 -3,-1.3 -3,-3v-35c0,-3.9 -3.1,-7 -7,-7h-34.6c-4.4,0 -8.4,-2.2 -10.8,-5.8l-4.1,-6.1c-1.3,-2 -3.5,-3.1 -5.8,-3.1h-21.7v67c0,3.9 3.1,7 7,7h81.2c3.5,0 6.5,-2.6 6.9,-6.1l7.5,-55c0.2,-2 -0.4,-4 -1.7,-5.5c-1.3,-1.5 -3.2,-2.4 -5.2,-2.4c-1.7,0 -3,-1.3 -3,-3c0,-1.7 1.3,-3 3,-3c3.7,0 7.3,1.6 9.7,4.4c2.5,2.8 3.6,6.5 3.2,10.2l-7.5,55c-0.8,6.5 -6.4,11.4 -12.9,11.4z" fill="#454b54"></path><path d="M107.7,32h-64.7c-1.7,0 -3,-1.3 -3,-3c0,-1.7 1.3,-3 3,-3h64.7c1.7,0 3,1.3 3,3c0,1.7 -1.4,3 -3,3z" fill="#454b54"></path></g></g></svg>