<svg version="1.1" xmlns="http://www.w3.org/2000/svg" xmlns:xlink="http://www.w3.org/1999/xlink" viewBox="0,0,256,256"><defs><linearGradient x1="24.5" y1="7.032" x2="24.5" y2="22.852" gradientUnits="userSpaceOnUse" id="color-1"><stop offset="0" stop-color="#0571bf"></stop><stop offset="1" stop-color="#0268ba"></stop></linearGradient><linearGradient x1="14.228" y1="14.219" x2="14.228" y2="32.761" gradientUnits="userSpaceOnUse" id="color-2"><stop offset="0" stop-color="#1684da"></stop><stop offset="1" stop-color="#107cd4"></stop></linearGradient><linearGradient x1="38.228" y1="18.746" x2="38.228" y2="34.097" gradientUnits="userSpaceOnUse" id="color-3"><stop offset="0" stop-color="#138cdd"></stop><stop offset="1" stop-color="#0c7dd4"></stop></linearGradient><linearGradient x1="17.13" y1="24.083" x2="31.145" y2="41.333" gradientUnits="userSpaceOnUse" id="color-4"><stop offset="0" stop-color="#27a7ea"></stop><stop offset="1" stop-color="#1c94e3"></stop></linearGradient></defs><g fill="none" fill-rule="nonzero" stroke="none" stroke-width="1" stroke-linecap="butt" stroke-linejoin="miter" stroke-miterlimit="10" stroke-dasharray="" stroke-dashoffset="0" font-family="none" font-weight="none" font-size="none" text-anchor="none" style="mix-blend-mode: normal"><g transform="scale(5.33333,5.33333)"><path d="M24.5,7c-8.008,0 -14.5,6.492 -14.5,14.5c0,8.008 6.492,14.5 14.5,14.5c8.008,0 14.5,-6.492 14.5,-14.5c0,-8.008 -6.492,-14.5 -14.5,-14.5z" fill="url(#color-1)"></path><path d="M16.155,14.972c-1.32,-0.505 -2.753,-0.781 -4.25,-0.781c-6.575,0 -11.905,5.33 -11.905,11.905c0,2.476 0.757,4.774 2.05,6.678c0.061,-0.026 16.445,-6.889 26.406,-10.888c-5.504,-3.318 -10.553,-6.245 -12.301,-6.914z" fill="url(#color-2)"></path><path d="M48,28.373c0,-5.317 -4.31,-9.627 -9.627,-9.627c-0.997,0 -1.958,0.152 -2.863,0.433c-0.996,0.31 -3.652,1.342 -7.054,2.708c8.377,5.05 17.79,10.996 18.252,11.288c0.817,-1.415 1.292,-3.052 1.292,-4.802z" fill="url(#color-3)"></path><path d="M46.709,33.175c-0.463,-0.292 -9.875,-6.238 -18.252,-11.288c-9.962,3.998 -26.346,10.861 -26.407,10.887c0.417,0.614 3.577,5.226 9.854,5.226c5.03,0 16.176,0 26.354,0c5.411,0 7.89,-3.854 8.451,-4.825z" fill="url(#color-4)"></path></g></g></svg>