<svg version="1.1" xmlns="http://www.w3.org/2000/svg" xmlns:xlink="http://www.w3.org/1999/xlink" viewBox="0,0,256,256"><defs><linearGradient x1="24.1" y1="44.1" x2="24.1" y2="4.1" gradientUnits="userSpaceOnUse" id="color-1"><stop offset="0" stop-color="#1580d6"></stop><stop offset="1" stop-color="#33afec"></stop></linearGradient></defs><g fill="none" fill-rule="nonzero" stroke="none" stroke-width="1" stroke-linecap="butt" stroke-linejoin="miter" stroke-miterlimit="10" stroke-dasharray="" stroke-dashoffset="0" font-family="none" font-weight="none" font-size="none" text-anchor="none" style="mix-blend-mode: normal"><g transform="scale(5.33333,5.33333)"><path d="M4.1,24.1c0,11 9,20 20,20v0c11,0 20,-9 20,-20v0c0,-11 -9,-20 -20,-20v0c-11.1,0 -20,8.9 -20,20" fill="url(#color-1)"></path><path d="M20,32c-2.4,0 -4.7,-0.9 -6.4,-2.6c-3.5,-3.5 -3.5,-9.2 0,-12.7l6,-6c0.8,-0.8 2,-0.8 2.8,0c0.8,0.8 0.8,2 0,2.8l-6,6c-1.9,1.9 -1.9,5.1 0,7.1c0.9,0.9 2.2,1.5 3.5,1.5c1.3,0 2.6,-0.5 3.5,-1.5l3.1,-3c0.8,-0.8 2.1,-0.7 2.8,0c0.8,0.8 0.7,2.1 0,2.8l-3,3c-1.6,1.7 -3.9,2.6 -6.3,2.6zM27,37.9c-0.5,0 -1,-0.2 -1.4,-0.6c-0.8,-0.8 -0.8,-2 0,-2.8l6,-6c1.9,-2 1.9,-5.1 0,-7.1c-1,-0.9 -2.2,-1.4 -3.6,-1.4c-1.3,0 -2.6,0.5 -3.5,1.5l-3.1,3c-0.8,0.8 -2.1,0.7 -2.8,0c-0.8,-0.8 -0.7,-2.1 0,-2.8l3.1,-3c1.7,-1.7 3.9,-2.6 6.3,-2.6c2.4,0 4.7,0.9 6.4,2.6c3.5,3.5 3.5,9.2 0,12.7l-6,6c-0.4,0.3 -0.9,0.5 -1.4,0.5z" fill="#ffffff"></path><path d="M21,10.1c0.5,0 1,0.2 1.4,0.6c0.8,0.8 0.8,2 0,2.8l-6,6c-1.9,1.9 -1.9,5.1 0,7.1c0.9,0.9 2.2,1.5 3.5,1.5c1.3,0 2.6,-0.5 3.5,-1.5l3.1,-3c0.387,-0.387 0.89,-0.563 1.386,-0.563c0.53,0 1.052,0.201 1.414,0.563c0.8,0.8 0.7,2.1 0,2.8l-3,3c-1.6,1.7 -3.9,2.6 -6.3,2.6c-2.4,0 -4.7,-0.9 -6.4,-2.6c-3.5,-3.5 -3.5,-9.2 0,-12.7l6,-6c0.4,-0.4 0.9,-0.6 1.4,-0.6M28,16.1c2.4,0 4.7,0.9 6.4,2.6c3.5,3.5 3.5,9.2 0,12.7l-6,6c-0.4,0.3 -0.9,0.5 -1.4,0.5c-0.5,0 -1,-0.2 -1.4,-0.6c-0.8,-0.8 -0.8,-2 0,-2.8l6,-6c1.9,-2 1.9,-5.1 0,-7.1c-1,-0.9 -2.2,-1.4 -3.6,-1.4c-1.3,0 -2.6,0.5 -3.5,1.5l-3.1,3c-0.387,0.387 -0.89,0.563 -1.386,0.563c-0.53,0 -1.052,-0.201 -1.414,-0.563c-0.8,-0.8 -0.7,-2.1 0,-2.8l3.1,-3c1.7,-1.7 3.9,-2.6 6.3,-2.6M21,9.6c-0.649,0 -1.272,0.265 -1.754,0.746l-6,6c-3.696,3.696 -3.696,9.711 0,13.407c1.772,1.772 4.17,2.747 6.754,2.747c2.586,0 5.015,-1.005 6.664,-2.757l2.989,-2.989c0.435,-0.435 0.693,-1.056 0.709,-1.704c0.017,-0.689 -0.235,-1.329 -0.709,-1.803c-0.451,-0.451 -1.095,-0.71 -1.767,-0.71c-0.665,0 -1.283,0.252 -1.74,0.71l-3.094,2.994c-0.787,0.873 -1.927,1.359 -3.152,1.359c-1.123,0 -2.299,-0.506 -3.146,-1.354c-1.713,-1.804 -1.717,-4.676 0,-6.393l6,-6c0.481,-0.481 0.746,-1.104 0.746,-1.754c0,-0.649 -0.265,-1.272 -0.746,-1.754c-0.482,-0.48 -1.105,-0.745 -1.754,-0.745zM28,15.6c-2.556,0 -4.857,0.95 -6.654,2.746l-3.094,2.994c-0.44,0.44 -0.699,1.061 -0.715,1.71c-0.017,0.689 0.235,1.329 0.709,1.803c0.451,0.451 1.095,0.71 1.767,0.71c0.664,0 1.282,-0.252 1.74,-0.71l3.094,-2.994c0.788,-0.873 1.928,-1.359 3.153,-1.359c1.229,0 2.328,0.428 3.266,1.272c1.68,1.77 1.68,4.586 -0.028,6.384l-5.991,5.991c-0.482,0.481 -0.747,1.104 -0.747,1.753c0,0.649 0.265,1.272 0.746,1.754c0.482,0.481 1.105,0.746 1.754,0.746c0.58,0 1.184,-0.213 1.7,-0.6l0.028,-0.021l0.025,-0.025l6,-6c3.696,-3.696 3.696,-9.711 0,-13.407c-1.771,-1.772 -4.169,-2.747 -6.753,-2.747z" fill="#000000" opacity="0.07"></path><path d="M21,10.1c0.5,0 1,0.2 1.4,0.6c0.8,0.8 0.8,2 0,2.8l-6,6c-1.9,1.9 -1.9,5.1 0,7.1c0.9,0.9 2.2,1.5 3.5,1.5c1.3,0 2.6,-0.5 3.5,-1.5l3.1,-3c0.387,-0.387 0.89,-0.563 1.386,-0.563c0.53,0 1.052,0.201 1.414,0.563c0.8,0.8 0.7,2.1 0,2.8l-3,3c-1.6,1.7 -3.9,2.6 -6.3,2.6c-2.4,0 -4.7,-0.9 -6.4,-2.6c-3.5,-3.5 -3.5,-9.2 0,-12.7l6,-6c0.4,-0.4 0.9,-0.6 1.4,-0.6M28,16.1c2.4,0 4.7,0.9 6.4,2.6c3.5,3.5 3.5,9.2 0,12.7l-6,6c-0.4,0.3 -0.9,0.5 -1.4,0.5c-0.5,0 -1,-0.2 -1.4,-0.6c-0.8,-0.8 -0.8,-2 0,-2.8l6,-6c1.9,-2 1.9,-5.1 0,-7.1c-1,-0.9 -2.2,-1.4 -3.6,-1.4c-1.3,0 -2.6,0.5 -3.5,1.5l-3.1,3c-0.387,0.387 -0.89,0.563 -1.386,0.563c-0.53,0 -1.052,-0.201 -1.414,-0.563c-0.8,-0.8 -0.7,-2.1 0,-2.8l3.1,-3c1.7,-1.7 3.9,-2.6 6.3,-2.6M21,9.1c-0.783,0 -1.531,0.317 -2.107,0.893l-6,6c-3.891,3.891 -3.891,10.223 0,14.114c1.865,1.866 4.389,2.893 7.107,2.893c2.723,0 5.285,-1.062 7.028,-2.915l2.979,-2.978c0.525,-0.525 0.836,-1.27 0.855,-2.045c0.02,-0.827 -0.284,-1.597 -0.855,-2.169c-0.544,-0.544 -1.317,-0.856 -2.121,-0.856c-0.798,0 -1.542,0.304 -2.094,0.856l-3.088,2.989l-0.025,0.024l-0.023,0.026c-0.668,0.742 -1.673,1.168 -2.756,1.168c-0.978,0 -2.048,-0.463 -2.793,-1.207c-1.519,-1.6 -1.527,-4.159 0,-5.686l6,-6c0.576,-0.576 0.893,-1.324 0.893,-2.107c0,-0.783 -0.317,-1.531 -0.893,-2.107c-0.576,-0.576 -1.324,-0.893 -2.107,-0.893zM28,15.1c-2.692,0 -5.115,1 -7.007,2.893l-3.088,2.988c-0.536,0.536 -0.848,1.281 -0.867,2.057c-0.02,0.827 0.284,1.597 0.855,2.169c0.544,0.544 1.317,0.856 2.121,0.856c0.798,0 1.542,-0.304 2.094,-0.856l3.088,-2.988l0.025,-0.024l0.023,-0.026c0.668,-0.743 1.673,-1.169 2.756,-1.169c1.105,0 2.054,0.365 2.901,1.117c1.498,1.606 1.489,4.099 -0.026,5.694l-5.982,5.982c-0.576,0.576 -0.893,1.324 -0.893,2.107c0,0.783 0.317,1.531 0.893,2.107c0.576,0.576 1.324,0.893 2.107,0.893c0.688,0 1.398,-0.249 2,-0.7l0.057,-0.043l0.05,-0.05l6,-6c3.891,-3.891 3.891,-10.223 0,-14.114c-1.865,-1.866 -4.389,-2.893 -7.107,-2.893z" fill="#000000" opacity="0.05"></path></g></g></svg>