<svg version="1.1" xmlns="http://www.w3.org/2000/svg" xmlns:xlink="http://www.w3.org/1999/xlink" viewBox="0,0,256,256"><g fill="none" fill-rule="nonzero" stroke="none" stroke-width="1" stroke-linecap="butt" stroke-linejoin="miter" stroke-miterlimit="10" stroke-dasharray="" stroke-dashoffset="0" font-family="none" font-weight="none" font-size="none" text-anchor="none" style="mix-blend-mode: normal"><g transform="scale(2,2)"><path d="M107,80c-6.62742,0 -12,5.37258 -12,12c0,6.62742 5.37258,12 12,12c6.62742,0 12,-5.37258 12,-12c0,-6.62742 -5.37258,-12 -12,-12zM57,90c-6.62742,0 -12,5.37258 -12,12c0,6.62742 5.37258,12 12,12c6.62742,0 12,-5.37258 12,-12c0,-6.62742 -5.37258,-12 -12,-12zM22,60c-6.62742,0 -12,5.37258 -12,12c0,6.62742 5.37258,12 12,12c6.62742,0 12,-5.37258 12,-12c0,-6.62742 -5.37258,-12 -12,-12z" fill-opacity="0" fill="#ffffff"></path><path d="M33.9,24c-1.6,0 -2.9,1.4 -2.9,3v31.2c0,0.8 -0.8,1.2 -1.5,0.8c-2.7,-1.6 -6,-2.3 -9.4,-1.9c-6.8,0.9 -12.3,6.4 -13,13.3c-1,9.4 6.7,17.2 16,16.6c7.9,-0.6 13.9,-7.5 13.9,-15.4v-41.1c3.5,1.2 6,4.5 6,8.4c0,1.2 0.7,2.4 1.9,2.8c2.1,0.9 4.1,-0.7 4.1,-2.7c0,-8.3 -6.8,-15.1 -15.1,-15zM22,81c-5,0 -9,-4 -9,-9c0,-5 4,-9 9,-9c5,0 9,4 9,9c0,5 -4,9 -9,9zM122,49.2c0,-4.5 -2.3,-8.7 -6.2,-11.1c-2.9,-1.8 -6.3,-2.2 -9.6,-1.6l-29.7,5.9c-6.1,1.3 -10.5,6.6 -10.5,12.8v33c0,0.8 -0.8,1.2 -1.5,0.8c-2.7,-1.6 -6,-2.3 -9.4,-1.9c-6.8,0.9 -12.3,6.4 -13,13.3c-1,9.4 6.7,17.2 16,16.6c7.9,-0.6 13.9,-7.4 13.9,-15.3v-32.2l44,-8.8v17.5c0,0.8 -0.8,1.2 -1.5,0.8c-2.7,-1.6 -6,-2.3 -9.4,-1.9c-6.8,0.9 -12.3,6.4 -13,13.3c-1,9.4 6.7,17.2 16,16.6c7.9,-0.6 13.9,-7.4 13.9,-15.3zM57,111c-5,0 -9,-4 -9,-9c0,-5 4,-9 9,-9c5,0 9,4 9,9c0,5 -4,9 -9,9zM72,63.3v-8.1c0,-3.3 2.4,-6.2 5.6,-6.9l30,-6c2.1,-0.4 4.2,0.1 5.8,1.5c1.6,1.3 2.6,3.3 2.6,5.4v5.3zM107,101c-5,0 -9,-4 -9,-9c0,-5 4,-9 9,-9c5,0 9,4 9,9c0,5 -4,9 -9,9z" fill="#ffffff"></path></g></g></svg>